<svg width="29" height="25" viewBox="0 0 29 25" fill="none" xmlns="http://www.w3.org/2000/svg">
<path d="M14.9531 2.31475C14.9531 2.30445 14.9539 2.29426 14.954 2.28402L7.73438 1.83691V3.71851L14.9531 3.27146V2.31475Z" fill="#3393F0"/>
<path d="M21.1406 2.31481C21.1406 1.70089 20.869 1.11211 20.3855 0.677994C19.902 0.243882 19.2463 0 18.5625 0C17.8787 0 17.223 0.243882 16.7395 0.677994C16.256 1.11211 15.9844 1.70089 15.9844 2.31481V4.62963H21.1406V2.31481Z" fill="#3393F0"/>
<path d="M6.70312 1.77315L1.03125 1.42188V4.13368L6.70312 3.78241V1.77315Z" fill="#3393F0"/>
<path d="M20.1094 6.48159H19.5938V5.55566H17.5312V6.48159H17.0156C16.8789 6.48173 16.7479 6.53055 16.6512 6.61734C16.5545 6.70413 16.5002 6.82181 16.5 6.94455V8.33344H20.625V6.94455C20.6248 6.82181 20.5705 6.70413 20.4738 6.61734C20.3771 6.53055 20.2461 6.48173 20.1094 6.48159Z" fill="#3393F0"/>
<path d="M24.2344 6.94484C24.869 7.27062 25.3949 7.74294 25.7576 8.31281C26.1203 8.88267 26.3065 9.5293 26.2969 10.1856C26.2873 9.5293 26.4735 8.88267 26.8362 8.31281C27.1988 7.74294 27.7248 7.27062 28.3594 6.94484C27.7248 6.61907 27.1988 6.14674 26.8362 5.57688C26.4735 5.00701 26.2873 4.36039 26.2969 3.7041C26.3065 4.36039 26.1203 5.00701 25.7576 5.57688C25.3949 6.14674 24.869 6.61907 24.2344 6.94484Z" fill="#3393F0"/>
<path d="M11.6022 19.4451C13.7104 16.8577 13.9624 15.6621 13.925 14.834C13.8962 14.3721 13.7526 13.9219 13.5048 13.5162C13.3472 13.2451 13.1302 13.0054 12.867 12.8113C12.6037 12.6172 12.2996 12.4727 11.9728 12.3866C11.6426 12.297 11.2958 12.2681 10.9529 12.3016C10.61 12.3351 10.2782 12.4304 9.97729 12.5816L8.9744 13.0816C8.43887 13.3509 7.83537 13.4922 7.2216 13.4922C6.60784 13.4922 6.00433 13.3509 5.4688 13.0816L4.46655 12.5816C4.16561 12.4304 3.8338 12.3352 3.49094 12.3017C3.14808 12.2681 2.80122 12.297 2.47109 12.3866C2.14424 12.4727 1.84011 12.6172 1.57687 12.8113C1.31363 13.0054 1.09669 13.2451 0.939035 13.5162C0.691088 13.9218 0.547286 14.372 0.518156 14.834C0.453703 16.2836 1.63062 17.9647 2.84105 19.4451H11.6022Z" fill="#3393F0"/>
<path d="M26.0365 19.4451C28.1454 16.8577 28.3968 15.6621 28.36 14.834C28.3306 14.3721 28.1868 13.9219 27.9391 13.5162C27.7815 13.2451 27.5646 13.0054 27.3013 12.8113C27.0381 12.6172 26.7339 12.4727 26.4071 12.3866C26.077 12.297 25.7301 12.2681 25.3872 12.3016C25.0444 12.3351 24.7126 12.4304 24.4116 12.5816L23.4094 13.0816C22.8737 13.3509 22.2701 13.4922 21.6563 13.4922C21.0424 13.4922 20.4388 13.3509 19.9031 13.0816L18.9009 12.5816C18.6 12.4304 18.2681 12.3351 17.9253 12.3016C17.5824 12.2681 17.2355 12.297 16.9054 12.3866C16.5786 12.4727 16.2744 12.6172 16.0112 12.8113C15.748 13.0054 15.531 13.2451 15.3734 13.5162C15.1257 13.9219 14.9819 14.3721 14.9525 14.834C14.888 16.2836 16.0649 17.9647 17.276 19.4451H26.0365ZM17.1188 16.9451C16.486 16.1875 16.2308 15.4591 16.3604 14.7801C16.458 14.2689 16.7739 13.8121 17.2409 13.5069L17.2444 13.5047L17.2452 13.5043C17.3587 13.4371 17.4972 13.4128 17.6304 13.4368C17.7637 13.4608 17.8811 13.5311 17.957 13.6324C18.0328 13.7337 18.0611 13.8577 18.0356 13.9776C18.01 14.0975 17.9328 14.2035 17.8207 14.2726L17.8225 14.2715C17.5832 14.4388 17.4231 14.6811 17.3742 14.9498C17.3012 15.3652 17.4927 15.8496 17.9437 16.3895C18.0257 16.4877 18.061 16.6112 18.0416 16.7327C18.0223 16.8543 17.95 16.9639 17.8406 17.0376C17.7312 17.1113 17.5936 17.1429 17.4583 17.1255C17.3229 17.1082 17.2007 17.0432 17.1187 16.945L17.1188 16.9451Z" fill="#3393F0"/>
<path d="M27.3281 20.3701H1.54688C1.13676 20.3705 0.743589 20.517 0.453597 20.7774C0.163605 21.0378 0.000477626 21.3908 0 21.759V24.9997H28.875V21.759C28.8745 21.3908 28.7114 21.0378 28.4214 20.7774C28.1314 20.517 27.7382 20.3705 27.3281 20.3701Z" fill="#3393F0"/>
<path d="M0 9.72219C0.634597 10.048 1.16053 10.5203 1.5232 11.0902C1.88588 11.66 2.07209 12.3066 2.0625 12.9629C2.05291 12.3066 2.23912 11.66 2.6018 11.0902C2.96447 10.5203 3.4904 10.048 4.125 9.72219C3.4904 9.39641 2.96447 8.92408 2.6018 8.35422C2.23912 7.78436 2.05291 7.13773 2.0625 6.48145C2.07209 7.13773 1.88588 7.78436 1.5232 8.35422C1.16053 8.92408 0.634597 9.39641 0 9.72219Z" fill="#3393F0"/>
</svg>
