<svg width="22" height="25" viewBox="0 0 22 25" fill="none" xmlns="http://www.w3.org/2000/svg">
<path d="M12.1803 2.34612C12.4941 2.28862 12.8036 2.23424 13.0969 2.1835L13.3639 2.13703C16.1935 1.65361 18.4096 1.82678 19.8171 2.63116C19.9994 2.27807 20.0709 1.87967 20.0226 1.48671C18.7692 0.823695 16.7225 0.69732 14.1625 1.13609C13.2377 1.2941 12.2924 1.4928 11.3783 1.71853C11.6735 1.89088 11.9434 2.1021 12.1803 2.34612Z" fill="#3393F0"/>
<path d="M5.34639 7.04689C7.33067 7.74911 11.6985 7.54514 15.1936 6.94655C18.14 6.4427 20.1827 5.46399 20.9466 4.19086C20.9513 4.18295 20.9642 4.16384 20.9696 4.15494C21.1933 3.78784 21.294 3.36127 21.2579 2.93502C21.1753 2.59396 21.0011 2.28074 20.7534 2.02832C20.6956 2.50021 20.5217 2.95117 20.2466 3.34215C19.2933 4.73079 17.1665 5.74294 14.0964 6.26837C9.97913 6.97324 7.10895 7.22829 5.34639 7.04689Z" fill="#3393F0"/>
<path d="M0.95335 6.43283C1.30062 6.86155 2.07641 7.48156 3.81329 8.01391C4.48703 8.21806 5.17268 8.38183 5.86673 8.50425C6.55742 8.63343 7.25532 8.7229 7.95659 8.77233C9.77353 8.88684 10.7254 8.58235 11.2049 8.30621C11.2927 8.25562 11.3731 8.19367 11.4439 8.122C10.6557 8.17818 9.87205 8.20949 9.12413 8.20949C7.28637 8.20949 5.66246 8.02232 4.69734 7.55801C4.39572 7.40972 4.24885 7.06817 4.3509 6.75264C4.45279 6.43695 4.77337 6.24105 5.10688 6.29064C6.49699 6.50088 8.90156 6.34716 12.262 5.83523C12.4453 4.68353 12.3159 3.7012 11.8921 3.12172C11.0139 1.91812 9.08787 1.50209 7.65346 2.13511C8.07542 2.63369 8.81059 3.35651 9.47359 3.47745C9.65654 3.51469 9.78158 3.6811 9.76413 3.86366C9.7465 4.04622 9.59175 4.18676 9.40494 4.18973C9.38244 4.18973 9.35995 4.18775 9.33797 4.18363C8.04353 3.94752 6.85299 2.304 6.79542 2.22293C5.75914 0.88949 3.57797 0.472965 2.21019 1.35198C1.13261 2.04597 0.620006 4.11772 0.685299 5.71215C0.69453 5.97429 0.788357 6.22655 0.95335 6.43283ZM3.20501 1.60968C3.39837 1.5619 3.59509 1.67459 3.64796 1.86341C3.70083 2.05207 3.59039 2.24765 3.39938 2.30367C3.34063 2.32047 2.1073 2.69745 2.26272 4.55353C2.27917 4.75157 2.12895 4.9254 1.9272 4.94155C1.91713 4.94204 1.90689 4.94204 1.89682 4.94155C1.70547 4.94221 1.54585 4.79837 1.53007 4.61119C1.36541 2.63303 2.5531 1.78317 3.20434 1.61083L3.20501 1.60968Z" fill="#3393F0"/>
<path d="M21.6333 16.3552H20.1846C20.2672 16.2112 20.3507 16.0693 20.4373 15.9294C20.6284 15.6406 20.7939 15.3363 20.9318 15.0198C21.3484 13.9811 21.5072 12.4607 20.5839 11.5958C19.6607 10.7308 17.9202 10.7456 16.93 11.6296C16.9149 11.6403 16.8988 11.6499 16.882 11.6581C16.8625 11.6721 16.8417 11.6841 16.8197 11.694C16.7979 11.7018 16.7753 11.7072 16.7523 11.7103C16.7298 11.7159 16.7066 11.7192 16.6833 11.7204C16.6601 11.7192 16.6371 11.7159 16.6148 11.7103C16.5916 11.7072 16.569 11.7018 16.547 11.694C16.5102 11.6724 16.4736 11.6508 16.4369 11.6293C15.4469 10.7456 13.7057 10.7295 12.7835 11.595C11.8612 12.4607 12.0187 13.9808 12.4351 15.0198C12.5734 15.3361 12.7387 15.6403 12.9297 15.929C13.0163 16.069 13.0999 16.2112 13.1823 16.3549H8.819C8.90158 16.2109 8.98517 16.069 9.07178 15.929C9.26279 15.6403 9.42828 15.336 9.56625 15.0195C9.98285 13.9808 10.1416 12.4603 9.21831 11.5955C8.78224 11.2066 8.22012 10.9819 7.63148 10.9613C6.94684 10.9234 6.28099 11.2261 5.63243 11.5208L5.48573 11.5867C4.94493 11.8176 4.4325 12.1072 3.95782 12.4506C3.53653 12.7821 3.22182 13.226 3.05112 13.7287C2.77786 14.4349 2.30302 14.6609 1.75383 14.9222C1.23233 15.1707 1.27278 15.3269 1.30165 15.4406C1.37802 15.6696 1.49199 15.885 1.63902 16.0781C1.69945 16.1692 1.75484 16.2616 1.81056 16.354H0.366745C0.164154 16.354 0 16.5152 0 16.7141C0 16.9128 0.164154 17.0739 0.366745 17.0739H2.17143C2.33945 17.4634 2.4519 17.8738 2.50545 18.2935C2.56201 18.9125 2.66759 19.5261 2.82117 20.1291C2.94907 20.5877 3.09828 21.0344 3.39168 21.0344C3.48953 20.9782 3.88112 20.3595 4.18375 18.2567C4.28479 17.543 4.60101 17.2166 4.92831 17.0751H5.70461C6.03174 17.2166 6.34729 17.543 6.45068 18.2571C6.74995 20.3595 7.14372 20.9782 7.27028 21.039C7.53749 21.0344 7.6904 20.571 7.81075 20.1331C7.96483 19.5292 8.07074 18.9145 8.12798 18.2945C8.18102 17.8748 8.29314 17.4644 8.46115 17.0751H13.5388C13.707 17.4647 13.8193 17.8753 13.8725 18.2953C13.9291 18.9143 14.0348 19.5279 14.1886 20.1309C14.3096 20.57 14.4625 21.035 14.7569 21.035C14.8563 20.9788 15.25 20.3601 15.5493 18.2586C15.653 17.543 15.9698 17.2148 16.2976 17.0757H17.0677C17.3955 17.2166 17.7122 17.5436 17.8159 18.2577C18.1152 20.3601 18.509 20.9788 18.6355 21.0398C18.9027 21.035 19.0556 20.5719 19.176 20.1337C19.3299 19.5299 19.436 18.9151 19.493 18.2953C19.5466 17.8753 19.6594 17.4646 19.8279 17.0751H21.6333C21.8358 17.0751 22 16.9139 22 16.715C22 16.5163 21.8358 16.3552 21.6333 16.3552ZM12.8953 14.2701C12.6568 13.2202 13.139 12.1397 14.087 11.6001C14.2639 11.5091 14.4823 11.5741 14.5785 11.7459C14.6745 11.9178 14.6129 12.1334 14.4397 12.2311C13.7762 12.6187 13.4423 13.3817 13.6129 14.1212C13.633 14.2146 13.6145 14.3121 13.5615 14.3922C13.5083 14.4723 13.425 14.5283 13.3299 14.5479C13.3047 14.553 13.2792 14.5555 13.2535 14.5555C13.0805 14.5553 12.9311 14.4363 12.8953 14.2701Z" fill="#3393F0"/>
</svg>
