<svg width="23" height="21" viewBox="0 0 23 21" fill="none" xmlns="http://www.w3.org/2000/svg">
<path d="M18.3826 0.330411C16.721 -0.204879 14.8708 -0.0939754 13.2225 0.693885C12.1715 1.19595 10.8658 1.19595 9.81502 0.694039C8.16821 -0.0932063 6.31655 -0.203495 4.65392 0.331949C5.29307 7.10783 17.6634 7.09352 18.3826 0.330411Z" fill="#3393F0"/>
<path d="M19.7623 0.954102C19.094 4.28844 15.5549 6.63602 11.5368 6.63617C7.4038 6.63633 3.92098 4.21737 3.27362 0.955024C0.832786 2.40784 -0.22732 5.08445 1.07407 7.58662C1.83853 9.05836 2.1788 10.6345 2.05826 12.1449C1.79924 15.3969 3.61141 18.4321 6.78773 20.066C7.021 20.1859 7.07021 20.1586 8.56462 20.1586C8.96897 20.1586 9.29704 19.8941 9.29704 19.568V14.7937C9.29704 13.8341 10.2623 13.0378 11.4489 13.0186C12.6763 12.9981 13.6916 13.8208 13.6916 14.8329V19.568C13.6916 19.8941 14.0194 20.1586 14.424 20.1586C16.1107 20.1586 16.1469 20.1881 16.3867 20.0581C19.2608 18.5005 21.1623 15.546 20.9365 12.226C20.8274 10.6516 21.173 9.06575 21.9359 7.63954C23.293 5.10029 22.1953 2.40261 19.7623 0.954102Z" fill="#3393F0"/>
</svg>
