<svg width="23" height="25" viewBox="0 0 23 25" fill="none" xmlns="http://www.w3.org/2000/svg">
<path d="M4.41069 10.2979H17.6426V13.2383H4.41069V10.2979Z" fill="#3393F0"/>
<path d="M8.82118 14.708H13.2318V16.9133H8.82118V14.708Z" fill="#3393F0"/>
<path d="M8.82118 22.0596H13.2318V25H8.82118V22.0596Z" fill="#3393F0"/>
<path d="M8.82118 18.3838H13.2318V20.5891H8.82118V18.3838Z" fill="#3393F0"/>
<path d="M6.61603 16.9141H8.82135V18.3843H6.61603V16.9141Z" fill="#3393F0"/>
<path d="M13.2319 16.9141H15.4372V18.3843H13.2319V16.9141Z" fill="#3393F0"/>
<path d="M13.2319 20.5898H15.4372V22.0601H13.2319V20.5898Z" fill="#3393F0"/>
<path d="M6.61603 20.5898H8.82135V22.0601H6.61603V20.5898Z" fill="#3393F0"/>
<path d="M22.0513 6.14875C21.9347 1.40387 16.7216 -1.55675 12.5797 0.862539C11.6181 1.42421 10.4351 1.42421 9.47342 0.862539C5.32976 -1.55778 0.11849 1.40505 0.00195141 6.14875C-0.021719 7.11149 0.170781 8.0267 0.534169 8.82767H21.519C21.8824 8.0267 22.0749 7.11149 22.0513 6.14875Z" fill="#3393F0"/>
</svg>
