<svg width="25" height="25" viewBox="0 0 25 25" fill="none" xmlns="http://www.w3.org/2000/svg">
<path d="M23.9067 8.27344C23.4669 9.33944 23.2771 10.4816 23.3559 11.6178C23.5741 14.8229 23.488 17.2619 19.7786 19.2696C19.4151 19.4661 18.992 19.57 18.5547 19.57H15.3809C14.1693 19.57 13.1836 18.7746 13.1836 17.7969V14.2876C13.1836 13.9534 12.8633 13.6551 12.4323 13.6588C12.0468 13.665 11.7188 13.9351 11.7188 14.2485V17.7969C11.7188 18.7746 10.733 19.57 9.52148 19.57H6.5918C6.17313 19.57 5.76515 19.4741 5.41191 19.2926C1.54171 17.3046 1.28727 14.8641 1.55334 11.5271C1.63803 10.4678 1.46198 9.36868 1.04313 8.30591C0.405884 8.73995 0 9.38869 0 10.1127V19.57C0 19.8964 0.327873 20.161 0.732422 20.161H24.2676C24.6721 20.161 25 19.8964 25 19.57V10.1136C25 9.37083 24.5728 8.70716 23.9067 8.27344Z" fill="#3393F0"/>
<path d="M3.01511 11.6035C2.76429 14.7488 2.98326 16.6443 6.19847 18.2961C6.41954 18.4095 6.56335 18.3884 7.11057 18.3884C6.68962 16.9544 5.85935 13.8749 5.85935 11.8871C5.85935 10.9297 6.19428 9.9794 6.81321 9.15351C6.83515 8.7618 6.84621 7.35058 5.98237 6.30489C5.75807 6.03324 5.84886 5.66631 6.1855 5.48531C6.52196 5.30416 6.97686 5.37757 7.20117 5.64923C7.60247 6.13482 7.85825 6.66674 8.0198 7.1725C8.43579 6.36107 8.78903 5.46715 8.78903 4.79486C8.78903 4.46856 9.11691 4.20384 9.52146 4.20384C9.92601 4.20384 10.2539 4.46856 10.2539 4.79486C10.2539 5.49901 9.98208 6.32229 9.63456 7.08739C10.009 6.94194 10.3996 6.8242 10.8015 6.73908C11.1927 6.65658 11.5932 6.84528 11.6956 7.16096C11.7983 7.47678 11.5642 7.79985 11.173 7.8825C8.94277 8.35439 7.32419 10.0385 7.32419 11.8871C7.32419 13.8669 8.25021 17.1593 8.61775 18.3884H9.52146C9.92601 18.3884 10.2539 18.1238 10.2539 17.7974V14.2489C10.2539 13.2913 11.2192 12.4966 12.4057 12.4774C13.644 12.4594 14.6484 13.2844 14.6484 14.288V17.7974C14.6484 18.1238 14.9763 18.3884 15.3808 18.3884H16.2845C16.6521 17.159 17.5781 13.8654 17.5781 11.8871C17.5781 10.1007 16.1665 8.52401 14.073 7.96115C13.6892 7.85787 13.4817 7.52327 13.6097 7.21344C13.7375 6.90392 14.1523 6.73631 14.5361 6.83959C14.7251 6.89053 14.9093 6.9484 15.0894 7.01166C14.8584 6.08726 15.159 5.4493 15.5163 5.04358C15.7505 4.77747 16.2079 4.71513 16.5376 4.90414C16.8672 5.09314 16.9447 5.46207 16.7104 5.72818C16.316 6.17607 16.4648 6.82358 16.7865 7.43107C16.9906 7.09708 17.2674 6.73708 17.6412 6.39416C17.9084 6.14914 18.3712 6.12512 18.675 6.34076C18.9787 6.55639 19.0082 6.92978 18.741 7.17496C18.12 7.74475 17.8531 8.38779 17.7494 8.71978C18.6132 9.66173 19.0429 10.7733 19.0429 11.8871C19.0429 13.8749 18.2127 16.9544 17.7917 18.3884C18.5735 18.3884 18.7248 18.417 18.9626 18.2882C20.4122 17.5037 21.2385 16.6571 21.6417 15.5427C22.578 12.9544 20.9614 10.7103 22.8925 7.10493C25.4018 2.41614 19.4509 -1.75904 14.18 0.757272C13.1286 1.25872 11.8225 1.25887 10.7713 0.757426C5.53128 -1.74411 -0.4082 2.36797 2.03111 7.05214C2.79538 8.5217 3.13565 10.0955 3.01511 11.6035Z" fill="#3393F0"/>
</svg>
