<svg width="28" height="25" viewBox="0 0 28 25" fill="none" xmlns="http://www.w3.org/2000/svg">
<path d="M20.2533 11.7126C21.3302 10.323 21.232 8.46166 20.0136 7.16875C18.795 5.87563 16.7579 5.47097 15.0402 6.1806C14.381 6.45586 13.619 6.45586 12.9598 6.1806C11.2422 5.47097 9.20507 5.87563 7.98645 7.16875C6.76806 8.46166 6.66985 10.323 7.74674 11.7126C8.6206 12.8464 9.20963 14.1354 9.47327 15.4914L10.1268 18.8225C10.1662 19.0215 10.3601 19.1663 10.5864 19.1663H11.3144C11.5487 19.1661 11.7467 19.0109 11.7768 18.8034L12.2929 15.2554C12.3845 14.6337 12.9771 14.1684 13.6794 14.1664H14.3206C15.0236 14.1678 15.617 14.6333 15.709 15.2554L16.2224 18.8034C16.2525 19.0111 16.4507 19.1663 16.6852 19.1663H17.4132C17.6395 19.1663 17.8334 19.0215 17.8728 18.8225L18.5268 15.4914C18.7904 14.1354 19.3795 12.8464 20.2533 11.7126ZM14 8.33308C13.0694 8.34753 12.1571 8.10095 11.3919 7.62773L11.9415 6.95431C13.1929 7.68164 14.8071 7.68164 16.0586 6.95431L16.6082 7.62773C15.843 8.10095 14.9306 8.34753 14 8.33308Z" fill="#3393F0"/>
<path d="M13.5333 0H14.4666V1.66665H13.5333V0Z" fill="#3393F0"/>
<path d="M16.6897 1.92825L17.1728 0.318359L18.0742 0.534015L17.5911 2.14391L16.6897 1.92825Z" fill="#3393F0"/>
<path d="M19.6627 2.91027L20.596 1.4668L21.4042 1.88346L20.4711 3.32693L19.6627 2.91027Z" fill="#3393F0"/>
<path d="M22.2496 4.54577L23.5694 3.36719L24.2293 3.95638L22.9095 5.13496L22.2496 4.54577Z" fill="#3393F0"/>
<path d="M24.2746 6.72179L25.8913 5.88867L26.358 6.6103L24.7413 7.44343L24.2746 6.72179Z" fill="#3393F0"/>
<path d="M25.599 9.29382L27.4021 8.8623L27.6437 9.66735L25.8406 10.0987L25.599 9.29382Z" fill="#3393F0"/>
<path d="M26.1333 12.083H28V12.9163H26.1333V12.083Z" fill="#3393F0"/>
<path d="M25.5993 15.7064L25.8408 14.9014L27.6439 15.3327L27.4021 16.1377L25.5993 15.7064Z" fill="#3393F0"/>
<path d="M24.2742 18.2773L24.7409 17.5557L26.3573 18.389L25.8907 19.1106L24.2742 18.2773Z" fill="#3393F0"/>
<path d="M22.2496 20.4554L22.9095 19.8662L24.2293 21.0448L23.5694 21.634L22.2496 20.4554Z" fill="#3393F0"/>
<path d="M19.6625 22.0903L20.4707 21.6738L21.404 23.1171L20.5958 23.5338L19.6625 22.0903Z" fill="#3393F0"/>
<path d="M16.6895 23.0721L17.5912 22.8564L18.0742 24.4663L17.1728 24.682L16.6895 23.0721Z" fill="#3393F0"/>
<path d="M13.5333 23.333H14.4666V24.9997H13.5333V23.333Z" fill="#3393F0"/>
<path d="M9.92555 24.4663L10.4086 22.8564L11.3103 23.0721L10.827 24.682L9.92555 24.4663Z" fill="#3393F0"/>
<path d="M6.59601 23.1173L7.52911 21.6738L8.33758 22.0903L7.40424 23.5338L6.59601 23.1173Z" fill="#3393F0"/>
<path d="M3.77046 21.0448L5.09025 19.8662L5.75038 20.4554L4.43036 21.634L3.77046 21.0448Z" fill="#3393F0"/>
<path d="M1.64272 18.3888L3.25941 17.5557L3.72608 18.2775L2.10938 19.1106L1.64272 18.3888Z" fill="#3393F0"/>
<path d="M0.356125 15.3337L2.15922 14.9023L2.40075 15.7072L0.597889 16.1385L0.356125 15.3337Z" fill="#3393F0"/>
<path d="M0 12.083H1.86667V12.9163H0V12.083Z" fill="#3393F0"/>
<path d="M0.356125 9.66715L0.597661 8.8623L2.40075 9.29362L2.15922 10.0985L0.356125 9.66715Z" fill="#3393F0"/>
<path d="M1.64217 6.61128L2.10883 5.88965L3.7253 6.72297L3.25864 7.44461L1.64217 6.61128Z" fill="#3393F0"/>
<path d="M3.77046 3.95638L4.43059 3.36719L5.75038 4.54577L5.09025 5.13496L3.77046 3.95638Z" fill="#3393F0"/>
<path d="M6.59601 1.88346L7.40424 1.4668L8.33758 2.91027L7.52911 3.32693L6.59601 1.88346Z" fill="#3393F0"/>
<path d="M9.92555 0.534015L10.8272 0.318359L11.3103 1.92805L10.4089 2.14391L9.92555 0.534015Z" fill="#3393F0"/>
</svg>
