<svg width="26" height="19" viewBox="0 0 26 19" fill="none" xmlns="http://www.w3.org/2000/svg">
<path d="M22.4773 12.1754C22.3519 11.3834 21.6793 10.7659 20.8133 10.5818C17.4474 9.86456 16.6036 8.10231 16.4613 6.14769C15.8644 6.04675 14.8025 5.9375 13 5.9375C11.1975 5.9375 10.1357 6.04675 9.53875 6.14769C9.39638 8.10231 8.55262 9.86456 5.18671 10.5818C4.32074 10.7671 3.64808 11.3834 3.52269 12.1754L2.87354 16.2628C2.64497 17.7021 3.80743 19 5.42442 19H20.5756C22.1913 19 23.3551 17.7021 23.1265 16.2628L22.4773 12.1754ZM13 16.0217C11.1779 16.0217 9.70071 14.6917 9.70071 13.053C9.70071 11.4142 11.1779 10.0842 13 10.0842C14.8221 10.0842 16.2993 11.4142 16.2993 13.053C16.2993 14.6917 14.8208 16.0217 13 16.0217ZM25.9961 4.75C25.9647 2.96875 20.9779 0.0011875 13 0C5.02083 0.0011875 0.0340008 2.96875 0.00395966 4.75C-0.0260815 6.53125 0.0313886 8.84925 3.31501 8.46331C7.15636 8.01087 6.91995 6.79131 6.91995 5.04806C6.91995 3.83206 10.0442 3.53875 13 3.53875C15.9558 3.53875 19.0788 3.83206 19.0801 5.04806C19.0801 6.79131 18.8437 8.01087 22.685 8.46331C25.9673 8.84925 26.0261 6.53125 25.9961 4.75Z" fill="white"/>
</svg>
