<svg width="21" height="19" viewBox="0 0 21 19" fill="none" xmlns="http://www.w3.org/2000/svg">
<path d="M14.4375 13.0426L15.9731 5.76129C17.01 5.23419 17.7188 4.22903 17.7188 3.06452C17.7188 2.25176 17.373 1.47228 16.7577 0.897576C16.1423 0.322868 15.3077 0 14.4375 0C13.5673 0 12.7327 0.322868 12.1173 0.897576C11.502 1.47228 11.1562 2.25176 11.1562 3.06452C11.1562 4.22903 11.865 5.23419 12.9019 5.76129L14.4375 13.0426ZM14.4375 1.22581C15.5269 1.22581 16.4062 2.0471 16.4062 3.06452C16.4062 4.08194 15.5269 4.90323 14.4375 4.90323C13.3481 4.90323 12.4688 4.08194 12.4688 3.06452C12.4688 2.0471 13.3481 1.22581 14.4375 1.22581ZM16.695 7.10968L21 5.47935V16.5116L14.595 19L6.5625 16.5116L0 18.9632V7.93097L6.5625 5.47935L12.1669 7.20774L14.4375 16.1561L16.695 7.10968Z" fill="white"/>
</svg>
