<svg width="29" height="19" viewBox="0 0 29 19" fill="none" xmlns="http://www.w3.org/2000/svg">
<path d="M28.6589 1.91203C28.6589 1.88156 28.6815 1.8519 28.68 1.82178L19.928 9.66274L28.6695 17.2532C28.6746 17.199 28.6589 17.1443 28.6589 17.0889V1.91203Z" fill="white"/>
<path d="M18.5944 10.8691L15.0216 14.0653C14.8408 14.2271 14.6073 14.3082 14.3736 14.3082C14.1449 14.3082 13.9161 14.2306 13.7365 14.075L10.1734 10.9878L1.37476 18.8733C1.5887 18.9448 1.81834 19.0003 2.05882 19.0003H26.6886C27.0457 19.0003 27.3806 18.8992 27.6718 18.7483L18.5944 10.8691Z" fill="white"/>
<path d="M14.3656 12.2425L27.7224 0.279324C27.42 0.112147 27.068 0 26.6907 0H2.06093C1.56962 0 1.11943 0.177373 0.768799 0.447892L14.3656 12.2425Z" fill="white"/>
<path d="M0 2.20312V17.0885C0 17.2594 0.0422401 17.4241 0.0880936 17.5816L8.77758 9.80128L0 2.20312Z" fill="white"/>
</svg>
