<svg width="25" height="25" viewBox="0 0 25 25" fill="none" xmlns="http://www.w3.org/2000/svg">
<path d="M17.9501 3.0278C17.6247 3.04268 17.3094 2.87235 17.1756 2.5811L16.7119 1.57098C16.541 1.19866 16.7316 0.769892 17.1373 0.613109C17.543 0.456516 18.0102 0.631038 18.1811 1.00335L18.6449 2.01348C18.8158 2.38579 18.6254 2.81456 18.2195 2.97115C18.1316 3.00529 18.0403 3.02361 17.9501 3.0278Z" fill="#3393F0"/>
<path d="M21.2267 2.47662C21.1097 2.48196 20.9898 2.46384 20.8751 2.41883C20.4701 2.26052 20.2815 1.83118 20.4541 1.45963L20.9251 0.444925C21.0977 0.0733753 21.5658 -0.0996205 21.9708 0.0586887C22.3759 0.216807 22.5644 0.64634 22.3919 1.01789L21.9207 2.0326C21.797 2.29886 21.5218 2.46308 21.2267 2.47662Z" fill="#3393F0"/>
<path d="M23.1126 4.92413C22.7844 4.9392 22.4669 4.76563 22.3352 4.47094C22.1682 4.0971 22.3632 3.67005 22.7705 3.51689L23.9003 3.09193C24.3076 2.93877 24.7733 3.11749 24.9402 3.49133C25.1072 3.86498 24.9124 4.29203 24.5051 4.44519L23.3751 4.87015C23.2891 4.90257 23.2005 4.91993 23.1126 4.92413Z" fill="#3393F0"/>
<path d="M23.4819 8.5942C22.4889 6.1736 20.0753 4.60329 17.3328 4.59375C17.3276 4.59375 17.3224 4.59375 17.3172 4.59375C15.8768 4.59375 14.8294 5.29298 13.9048 5.91001C13.2023 6.37883 12.595 6.78433 11.9709 6.78967C11.347 6.78433 10.7395 6.37902 10.0372 5.91001C9.11263 5.29279 8.06523 4.59375 6.62479 4.59375C6.6196 4.59375 6.61442 4.59375 6.60923 4.59375C3.8667 4.60329 1.4529 6.1736 0.459842 8.5942C-0.660982 11.3269 0.483072 13.4913 1.58958 15.5846C1.75758 15.9026 1.93139 16.2316 2.094 16.5568C2.35035 17.0695 2.60131 17.99 2.867 18.9644C3.4915 21.2557 4.19938 23.8527 5.77961 24.7084C6.31866 25.0002 6.93113 25.0748 7.55086 24.9239C9.18978 24.5253 9.74501 22.8138 10.2347 21.3038C10.7538 19.7037 11.1305 18.729 11.9711 18.7199C12.8115 18.729 13.1884 19.7037 13.7073 21.3038C14.1972 22.8138 14.7522 24.5253 16.3911 24.9239C16.5998 24.9746 16.8076 25 17.0121 25C17.4149 25 17.805 24.902 18.1624 24.7084C19.7426 23.8525 20.4507 21.2557 21.0752 18.9644C21.3407 17.99 21.5916 17.0695 21.848 16.5568C22.0106 16.2314 22.1844 15.9026 22.3526 15.5844C23.4589 13.4913 24.603 11.3269 23.4819 8.5942ZM6.62748 8.9812C5.86485 8.98387 5.23268 9.41703 4.93609 10.1397C4.81579 10.4329 4.51235 10.6135 4.19004 10.6135C4.09671 10.6135 4.00193 10.5984 3.90942 10.5664C3.49731 10.4241 3.28907 10.0024 3.444 9.62436C3.97496 8.33061 5.19244 7.52381 6.62147 7.51866H6.62458C7.06345 7.51866 7.41998 7.84424 7.42164 8.24726C7.4233 8.65104 7.06781 8.97968 6.62748 8.9812Z" fill="#3393F0"/>
</svg>
