<svg width="31" height="25" viewBox="0 0 31 25" fill="none" xmlns="http://www.w3.org/2000/svg">
<path d="M28.198 16.9543V18.3145C28.198 20.7189 26.2417 22.6751 23.8374 22.6751H20.3491C19.7432 22.6751 19.1504 22.5494 18.6049 22.3107C18.0594 22.5492 17.4666 22.6751 16.8606 22.6751H13.3722C12.7662 22.6751 12.1734 22.5494 11.6279 22.3107C11.0824 22.5492 10.4899 22.6751 9.8837 22.6751H6.39546C3.99108 22.6751 2.03487 20.7189 2.03487 18.3145V17.7333C2.03487 17.4498 2.06254 17.1728 2.11444 16.9043C0.848361 17.6682 0 19.0568 0 20.6403V22.3845C0 23.827 1.17359 25.0006 2.61635 25.0006H27.6165C29.0592 25.0006 30.2328 23.827 30.2328 22.3845V20.6403C30.2328 19.0905 29.4195 17.728 28.198 16.9543Z" fill="#3393F0"/>
<path d="M27.6165 0H2.61635C1.17359 0 0 1.17359 0 2.61636V4.36059C0 5.91038 0.8133 7.27288 2.03487 8.04628V6.68609C2.03487 4.28171 3.99108 2.3255 6.39546 2.3255H9.8837C10.4899 2.3255 11.0824 2.45143 11.6279 2.69017C12.1734 2.45143 12.7662 2.3255 13.3722 2.3255H16.8606C17.4666 2.3255 18.0594 2.45143 18.6049 2.69017C19.1504 2.45143 19.7432 2.3255 20.3491 2.3255H23.8374C26.2417 2.3255 28.198 4.28171 28.198 6.68609V7.26758C28.198 7.55082 28.1703 7.82808 28.1184 8.09656C29.3845 7.33239 30.2328 5.94383 30.2328 4.36059V2.61636C30.2328 1.17359 29.0592 0 27.6165 0Z" fill="#3393F0"/>
<path d="M14.2443 11.6275H15.9885C16.9517 11.6275 17.7328 10.8468 17.7328 9.8833V4.44738C17.7328 4.37219 17.7431 4.29953 17.7611 4.2301C17.4802 4.12654 17.1771 4.06934 16.8606 4.06934H13.3722C13.0665 4.06934 12.7729 4.12262 12.5 4.21949V9.8833C12.5 10.8468 13.2811 11.6275 14.2443 11.6275Z" fill="#3393F0"/>
<path d="M10.7558 9.8833V4.21949C10.4829 4.12262 10.1895 4.06934 9.88367 4.06934H6.39542C4.95035 4.06934 3.77907 5.24085 3.77907 6.68569V10.7554C3.77907 11.0613 3.83235 11.3547 3.929 11.6275H9.01178C9.97501 11.6275 10.7558 10.8468 10.7558 9.8833Z" fill="#3393F0"/>
<path d="M26.4538 6.68569C26.4538 5.24085 25.2825 4.06934 23.8374 4.06934H20.3492C20.0327 4.06934 19.7296 4.12654 19.4484 4.2301C19.4664 4.29953 19.477 4.37219 19.477 4.44738V8.1393C19.477 9.10253 20.2578 9.8833 21.221 9.8833H23.8374C25.2825 9.8833 26.4538 8.71202 26.4538 7.26718V6.68569Z" fill="#3393F0"/>
<path d="M19.477 15.1163V20.7801C19.7499 20.877 20.0432 20.9303 20.3491 20.9303H23.8373C25.2824 20.9303 26.4537 19.759 26.4537 18.3139V14.2442C26.4537 13.9386 26.4004 13.6452 26.3038 13.3721H21.221C20.2578 13.3721 19.477 14.1531 19.477 15.1163Z" fill="#3393F0"/>
<path d="M12.5 20.7801C12.7729 20.877 13.0665 20.9303 13.3722 20.9303H16.8606C17.1663 20.9303 17.4599 20.877 17.7328 20.7801V15.1163C17.7328 14.1531 16.9517 13.3721 15.9885 13.3721H14.2443C13.2811 13.3721 12.5 14.1531 12.5 15.1163V20.7801Z" fill="#3393F0"/>
<path d="M3.77907 18.3138C3.77907 19.7589 4.95035 20.9302 6.39542 20.9302H9.88367C10.1895 20.9302 10.4829 20.8769 10.7558 20.78V16.8604C10.7558 15.8972 9.97501 15.1162 9.01178 15.1162H6.39542C4.95035 15.1162 3.77907 16.2875 3.77907 17.7326V18.3138Z" fill="#3393F0"/>
</svg>
