<svg width="21" height="21" viewBox="0 0 21 21" fill="none" xmlns="http://www.w3.org/2000/svg">
<path d="M20.3604 6.4197C20.349 5.5607 20.1882 4.71024 19.8852 3.90637C19.6225 3.2283 19.2212 2.6125 18.707 2.0983C18.1928 1.5841 17.577 1.18281 16.8989 0.920081C16.1054 0.622198 15.267 0.461127 14.4196 0.443727C13.3285 0.394958 12.9826 0.381348 10.213 0.381348C7.4433 0.381348 7.0883 0.381348 6.00516 0.443727C5.15811 0.461255 4.32017 0.622324 3.52699 0.920081C2.84882 1.18263 2.23292 1.58385 1.71869 2.09807C1.20447 2.6123 0.803252 3.2282 0.540702 3.90637C0.242222 4.69931 0.0815004 5.53744 0.0654822 6.38454C0.0167127 7.47675 0.00196838 7.82268 0.00196838 10.5923C0.00196838 13.362 0.00196838 13.7159 0.0654822 14.8001C0.0824949 15.6485 0.242414 16.4855 0.540702 17.2806C0.803692 17.9585 1.20521 18.5742 1.71961 19.0882C2.234 19.6022 2.84996 20.0033 3.52812 20.2657C4.31913 20.5756 5.15722 20.7482 6.0063 20.7761C7.09851 20.8249 7.44443 20.8396 10.2141 20.8396C12.9837 20.8396 13.3387 20.8396 14.4219 20.7761C15.2693 20.7594 16.1077 20.5987 16.9012 20.3009C17.5791 20.0378 18.1947 19.6365 18.7089 19.1223C19.223 18.6081 19.6244 17.9925 19.8875 17.3146C20.1858 16.5207 20.3457 15.6837 20.3627 14.8342C20.4115 13.7431 20.4262 13.3972 20.4262 10.6264C20.4239 7.8567 20.4239 7.50511 20.3604 6.4197ZM10.2062 15.83C7.30947 15.83 4.96285 13.4834 4.96285 10.5867C4.96285 7.68998 7.30947 5.34337 10.2062 5.34337C11.5968 5.34337 12.9304 5.89579 13.9137 6.87909C14.897 7.8624 15.4494 9.19606 15.4494 10.5867C15.4494 11.9773 14.897 13.3109 13.9137 14.2942C12.9304 15.2775 11.5968 15.83 10.2062 15.83ZM15.6581 6.37207C14.981 6.37207 14.4355 5.82539 14.4355 5.14942C14.4355 4.98894 14.4671 4.83003 14.5285 4.68176C14.5899 4.53349 14.68 4.39877 14.7934 4.28529C14.9069 4.17181 15.0416 4.08179 15.1899 4.02037C15.3382 3.95896 15.4971 3.92735 15.6576 3.92735C15.8181 3.92735 15.977 3.95896 16.1252 4.02037C16.2735 4.08179 16.4082 4.17181 16.5217 4.28529C16.6352 4.39877 16.7252 4.53349 16.7866 4.68176C16.848 4.83003 16.8796 4.98894 16.8796 5.14942C16.8796 5.82539 16.333 6.37207 15.6581 6.37207Z" fill="white"/>
</svg>
