<svg width="22" height="23" viewBox="0 0 22 23" fill="none" xmlns="http://www.w3.org/2000/svg">
<path fill-rule="evenodd" clip-rule="evenodd" d="M1.19386 3.40601C1.19386 2.96953 1.36725 2.55092 1.67589 2.24228C1.98453 1.93365 2.40313 1.76026 2.83961 1.76026H19.2452C19.4615 1.7599 19.6757 1.80222 19.8757 1.88478C20.0756 1.96734 20.2573 2.08852 20.4103 2.24139C20.5633 2.39426 20.6847 2.57581 20.7675 2.77565C20.8503 2.97549 20.8928 3.1897 20.8927 3.40601V19.8116C20.8929 20.0279 20.8505 20.2422 20.7679 20.4421C20.6852 20.6421 20.5639 20.8237 20.411 20.9768C20.2581 21.1298 20.0764 21.2511 19.8766 21.3339C19.6767 21.4167 19.4624 21.4592 19.2461 21.4591H2.83961C2.62341 21.4591 2.40933 21.4165 2.2096 21.3337C2.00987 21.251 1.82841 21.1297 1.67558 20.9768C1.52274 20.8238 1.40154 20.6423 1.31888 20.4425C1.23623 20.2428 1.19375 20.0287 1.19386 19.8125V3.40601ZM8.99102 9.27089H11.6584V10.6104C12.0435 9.84037 13.0284 9.14732 14.5085 9.14732C17.346 9.14732 18.0185 10.6811 18.0185 13.4954V18.7084H15.1469V14.1365C15.1469 12.5337 14.7619 11.6294 13.7841 11.6294C12.4276 11.6294 11.8635 12.6045 11.8635 14.1365V18.7084H8.99102V9.27089ZM4.06631 18.5858H6.93876V9.14732H4.06631V18.5849V18.5858ZM7.34975 6.06893C7.35517 6.31487 7.3114 6.55942 7.22103 6.78822C7.13065 7.01702 6.99549 7.22546 6.82346 7.40132C6.65144 7.57717 6.44602 7.71689 6.21927 7.81228C5.99251 7.90768 5.74899 7.95681 5.50299 7.95681C5.25698 7.95681 5.01346 7.90768 4.7867 7.81228C4.55995 7.71689 4.35453 7.57717 4.18251 7.40132C4.01048 7.22546 3.87532 7.01702 3.78494 6.78822C3.69457 6.55942 3.6508 6.31487 3.65622 6.06893C3.66685 5.58618 3.86609 5.12678 4.21127 4.78912C4.55644 4.45146 5.02012 4.26238 5.50299 4.26238C5.98585 4.26238 6.44953 4.45146 6.79471 4.78912C7.13988 5.12678 7.33912 5.58618 7.34975 6.06893Z" fill="white"/>
</svg>
