<svg width="19" height="18" viewBox="0 0 19 18" fill="none" xmlns="http://www.w3.org/2000/svg">
<path d="M9.48647 0.103599L17.2589 5.22174C17.5751 5.4299 17.8347 5.71334 18.0143 6.04662C18.1939 6.3799 18.288 6.75257 18.288 7.13117V14.5478C18.288 15.2643 18.0033 15.9515 17.4967 16.4581C16.99 16.9648 16.3029 17.2494 15.5863 17.2494H2.70163C1.98512 17.2494 1.29794 16.9648 0.79129 16.4581C0.284636 15.9515 1.41622e-07 15.2643 1.41622e-07 14.5478V7.13117C-0.00013316 6.75243 0.0938376 6.37959 0.273468 6.04615C0.453098 5.71272 0.712758 5.42914 1.02911 5.22091L8.8015 0.102767C8.9033 0.0357287 9.02251 0 9.1444 0C9.26629 0 9.38551 0.0357287 9.4873 0.102767L9.48647 0.103599ZM17.0411 7.64489L9.47483 12.3748C9.37565 12.4369 9.261 12.4699 9.14399 12.4699C9.02697 12.4699 8.91232 12.4369 8.81314 12.3748L1.24691 7.64573V14.5478C1.24691 15.3508 1.89862 16.0025 2.70163 16.0025H15.5863C15.9722 16.0025 16.3422 15.8492 16.615 15.5764C16.8878 15.3036 17.0411 14.9336 17.0411 14.5478V7.64489ZM9.14399 1.37046L1.71491 6.26332C1.6634 6.29689 1.61499 6.33501 1.57027 6.3772L9.14399 11.1105L16.7169 6.3772C16.6727 6.33508 16.6248 6.29697 16.5739 6.26332L9.14399 1.37046Z" fill="white"/>
</svg>
