<svg width="72" height="79" viewBox="0 0 72 79" fill="none" xmlns="http://www.w3.org/2000/svg">
<path fill-rule="evenodd" clip-rule="evenodd" d="M2.53561 1.7264C2.53561 2.40263 1.9879 2.95035 1.31166 2.95035C0.635427 2.95035 0.0877075 2.40263 0.0877075 1.7264C0.0877075 1.05016 0.635427 0.502441 1.31166 0.502441C1.9879 0.502441 2.53561 1.05016 2.53561 1.7264Z" fill="#3393F0"/>
<path fill-rule="evenodd" clip-rule="evenodd" d="M2.53561 7.84602C2.53561 8.52226 1.9879 9.06998 1.31166 9.06998C0.635427 9.06998 0.0877075 8.52226 0.0877075 7.84602C0.0877075 7.16979 0.635427 6.62207 1.31166 6.62207C1.9879 6.62207 2.53561 7.16979 2.53561 7.84602Z" fill="#3393F0"/>
<path fill-rule="evenodd" clip-rule="evenodd" d="M9.06336 7.84602C9.06336 8.52226 8.51564 9.06998 7.8394 9.06998C7.16317 9.06998 6.61545 8.52226 6.61545 7.84602C6.61545 7.16979 7.16317 6.62207 7.8394 6.62207C8.51564 6.62207 9.06336 7.16979 9.06336 7.84602Z" fill="#3393F0"/>
<path fill-rule="evenodd" clip-rule="evenodd" d="M15.1832 7.84602C15.1832 8.52226 14.6354 9.06998 13.9592 9.06998C13.283 9.06998 12.7353 8.52226 12.7353 7.84602C12.7353 7.16979 13.283 6.62207 13.9592 6.62207C14.6354 6.62207 15.1832 7.16979 15.1832 7.84602Z" fill="#3393F0"/>
<path fill-rule="evenodd" clip-rule="evenodd" d="M21.3029 7.84602C21.3029 8.52226 20.7552 9.06998 20.0789 9.06998C19.4027 9.06998 18.855 8.52226 18.855 7.84602C18.855 7.16979 19.4027 6.62207 20.0789 6.62207C20.7552 6.62207 21.3029 7.16979 21.3029 7.84602Z" fill="#3393F0"/>
<path fill-rule="evenodd" clip-rule="evenodd" d="M27.8306 7.84602C27.8306 8.52226 27.2829 9.06998 26.6067 9.06998C25.9304 9.06998 25.3827 8.52226 25.3827 7.84602C25.3827 7.16979 25.9304 6.62207 26.6067 6.62207C27.2829 6.62207 27.8306 7.16979 27.8306 7.84602Z" fill="#3393F0"/>
<path fill-rule="evenodd" clip-rule="evenodd" d="M33.9504 7.84602C33.9504 8.52226 33.4027 9.06998 32.7265 9.06998C32.0503 9.06998 31.5025 8.52226 31.5025 7.84602C31.5025 7.16979 32.0503 6.62207 32.7265 6.62207C33.4027 6.62207 33.9504 7.16979 33.9504 7.84602Z" fill="#3393F0"/>
<path fill-rule="evenodd" clip-rule="evenodd" d="M40.4782 7.84602C40.4782 8.52226 39.9305 9.06998 39.2542 9.06998C38.578 9.06998 38.0303 8.52226 38.0303 7.84602C38.0303 7.16979 38.578 6.62207 39.2542 6.62207C39.9305 6.62207 40.4782 7.16979 40.4782 7.84602Z" fill="#3393F0"/>
<path fill-rule="evenodd" clip-rule="evenodd" d="M46.598 7.84602C46.598 8.52226 46.0503 9.06998 45.374 9.06998C44.6978 9.06998 44.1501 8.52226 44.1501 7.84602C44.1501 7.16979 44.6978 6.62207 45.374 6.62207C46.0503 6.62207 46.598 7.16979 46.598 7.84602Z" fill="#3393F0"/>
<path fill-rule="evenodd" clip-rule="evenodd" d="M53.1257 7.84602C53.1257 8.52226 52.578 9.06998 51.9017 9.06998C51.2255 9.06998 50.6778 8.52226 50.6778 7.84602C50.6778 7.16979 51.2255 6.62207 51.9017 6.62207C52.578 6.62207 53.1257 7.16979 53.1257 7.84602Z" fill="#3393F0"/>
<path fill-rule="evenodd" clip-rule="evenodd" d="M59.2455 7.84602C59.2455 8.52226 58.6977 9.06998 58.0215 9.06998C57.3453 9.06998 56.7975 8.52226 56.7975 7.84602C56.7975 7.16979 57.3453 6.62207 58.0215 6.62207C58.6977 6.62207 59.2455 7.16979 59.2455 7.84602Z" fill="#3393F0"/>
<path fill-rule="evenodd" clip-rule="evenodd" d="M65.3653 7.84602C65.3653 8.52226 64.8175 9.06998 64.1413 9.06998C63.4651 9.06998 62.9174 8.52226 62.9174 7.84602C62.9174 7.16979 63.4651 6.62207 64.1413 6.62207C64.8175 6.62207 65.3653 7.16979 65.3653 7.84602Z" fill="#3393F0"/>
<path fill-rule="evenodd" clip-rule="evenodd" d="M71.893 7.84602C71.893 8.52226 71.3453 9.06998 70.669 9.06998C69.9928 9.06998 69.4451 8.52226 69.4451 7.84602C69.4451 7.16979 69.9928 6.62207 70.669 6.62207C71.3453 6.62207 71.893 7.16979 71.893 7.84602Z" fill="#3393F0"/>
<path fill-rule="evenodd" clip-rule="evenodd" d="M2.53561 14.3739C2.53561 15.0501 1.9879 15.5978 1.31166 15.5978C0.635427 15.5978 0.0877075 15.0501 0.0877075 14.3739C0.0877075 13.6976 0.635427 13.1499 1.31166 13.1499C1.9879 13.1499 2.53561 13.6976 2.53561 14.3739Z" fill="#3393F0"/>
<path fill-rule="evenodd" clip-rule="evenodd" d="M9.06336 14.3739C9.06336 15.0501 8.51564 15.5978 7.8394 15.5978C7.16317 15.5978 6.61545 15.0501 6.61545 14.3739C6.61545 13.6976 7.16317 13.1499 7.8394 13.1499C8.51564 13.1499 9.06336 13.6976 9.06336 14.3739Z" fill="#3393F0"/>
<path fill-rule="evenodd" clip-rule="evenodd" d="M15.1832 14.3739C15.1832 15.0501 14.6354 15.5978 13.9592 15.5978C13.283 15.5978 12.7353 15.0501 12.7353 14.3739C12.7353 13.6976 13.283 13.1499 13.9592 13.1499C14.6354 13.1499 15.1832 13.6976 15.1832 14.3739Z" fill="#3393F0"/>
<path fill-rule="evenodd" clip-rule="evenodd" d="M21.3029 14.3739C21.3029 15.0501 20.7552 15.5978 20.0789 15.5978C19.4027 15.5978 18.855 15.0501 18.855 14.3739C18.855 13.6976 19.4027 13.1499 20.0789 13.1499C20.7552 13.1499 21.3029 13.6976 21.3029 14.3739Z" fill="#3393F0"/>
<path fill-rule="evenodd" clip-rule="evenodd" d="M27.8306 14.3739C27.8306 15.0501 27.2829 15.5978 26.6067 15.5978C25.9304 15.5978 25.3827 15.0501 25.3827 14.3739C25.3827 13.6976 25.9304 13.1499 26.6067 13.1499C27.2829 13.1499 27.8306 13.6976 27.8306 14.3739Z" fill="#3393F0"/>
<path fill-rule="evenodd" clip-rule="evenodd" d="M33.9504 14.3739C33.9504 15.0501 33.4027 15.5978 32.7265 15.5978C32.0503 15.5978 31.5025 15.0501 31.5025 14.3739C31.5025 13.6976 32.0503 13.1499 32.7265 13.1499C33.4027 13.1499 33.9504 13.6976 33.9504 14.3739Z" fill="#3393F0"/>
<path fill-rule="evenodd" clip-rule="evenodd" d="M40.4782 14.3739C40.4782 15.0501 39.9305 15.5978 39.2542 15.5978C38.578 15.5978 38.0303 15.0501 38.0303 14.3739C38.0303 13.6976 38.578 13.1499 39.2542 13.1499C39.9305 13.1499 40.4782 13.6976 40.4782 14.3739Z" fill="#3393F0"/>
<path fill-rule="evenodd" clip-rule="evenodd" d="M46.598 14.3739C46.598 15.0501 46.0503 15.5978 45.374 15.5978C44.6978 15.5978 44.1501 15.0501 44.1501 14.3739C44.1501 13.6976 44.6978 13.1499 45.374 13.1499C46.0503 13.1499 46.598 13.6976 46.598 14.3739Z" fill="#3393F0"/>
<path fill-rule="evenodd" clip-rule="evenodd" d="M53.1257 14.3739C53.1257 15.0501 52.578 15.5978 51.9017 15.5978C51.2255 15.5978 50.6778 15.0501 50.6778 14.3739C50.6778 13.6976 51.2255 13.1499 51.9017 13.1499C52.578 13.1499 53.1257 13.6976 53.1257 14.3739Z" fill="#3393F0"/>
<path fill-rule="evenodd" clip-rule="evenodd" d="M59.2455 14.3739C59.2455 15.0501 58.6977 15.5978 58.0215 15.5978C57.3453 15.5978 56.7975 15.0501 56.7975 14.3739C56.7975 13.6976 57.3453 13.1499 58.0215 13.1499C58.6977 13.1499 59.2455 13.6976 59.2455 14.3739Z" fill="#3393F0"/>
<path fill-rule="evenodd" clip-rule="evenodd" d="M65.3653 14.3739C65.3653 15.0501 64.8175 15.5978 64.1413 15.5978C63.4651 15.5978 62.9174 15.0501 62.9174 14.3739C62.9174 13.6976 63.4651 13.1499 64.1413 13.1499C64.8175 13.1499 65.3653 13.6976 65.3653 14.3739Z" fill="#3393F0"/>
<path fill-rule="evenodd" clip-rule="evenodd" d="M71.893 14.3739C71.893 15.0501 71.3453 15.5978 70.669 15.5978C69.9928 15.5978 69.4451 15.0501 69.4451 14.3739C69.4451 13.6976 69.9928 13.1499 70.669 13.1499C71.3453 13.1499 71.893 13.6976 71.893 14.3739Z" fill="#3393F0"/>
<path fill-rule="evenodd" clip-rule="evenodd" d="M2.53561 20.4935C2.53561 21.1697 1.9879 21.7174 1.31166 21.7174C0.635427 21.7174 0.0877075 21.1697 0.0877075 20.4935C0.0877075 19.8173 0.635427 19.2695 1.31166 19.2695C1.9879 19.2695 2.53561 19.8173 2.53561 20.4935Z" fill="#3393F0"/>
<path fill-rule="evenodd" clip-rule="evenodd" d="M9.06336 20.4935C9.06336 21.1697 8.51564 21.7174 7.8394 21.7174C7.16317 21.7174 6.61545 21.1697 6.61545 20.4935C6.61545 19.8173 7.16317 19.2695 7.8394 19.2695C8.51564 19.2695 9.06336 19.8173 9.06336 20.4935Z" fill="#3393F0"/>
<path fill-rule="evenodd" clip-rule="evenodd" d="M15.1832 20.4935C15.1832 21.1697 14.6354 21.7174 13.9592 21.7174C13.283 21.7174 12.7353 21.1697 12.7353 20.4935C12.7353 19.8173 13.283 19.2695 13.9592 19.2695C14.6354 19.2695 15.1832 19.8173 15.1832 20.4935Z" fill="#3393F0"/>
<path fill-rule="evenodd" clip-rule="evenodd" d="M21.3029 20.4935C21.3029 21.1697 20.7552 21.7174 20.0789 21.7174C19.4027 21.7174 18.855 21.1697 18.855 20.4935C18.855 19.8173 19.4027 19.2695 20.0789 19.2695C20.7552 19.2695 21.3029 19.8173 21.3029 20.4935Z" fill="#3393F0"/>
<path fill-rule="evenodd" clip-rule="evenodd" d="M27.8306 20.4935C27.8306 21.1697 27.2829 21.7174 26.6067 21.7174C25.9304 21.7174 25.3827 21.1697 25.3827 20.4935C25.3827 19.8173 25.9304 19.2695 26.6067 19.2695C27.2829 19.2695 27.8306 19.8173 27.8306 20.4935Z" fill="#3393F0"/>
<path fill-rule="evenodd" clip-rule="evenodd" d="M33.9504 20.4935C33.9504 21.1697 33.4027 21.7174 32.7265 21.7174C32.0503 21.7174 31.5025 21.1697 31.5025 20.4935C31.5025 19.8173 32.0503 19.2695 32.7265 19.2695C33.4027 19.2695 33.9504 19.8173 33.9504 20.4935Z" fill="#3393F0"/>
<path fill-rule="evenodd" clip-rule="evenodd" d="M40.4782 20.4935C40.4782 21.1697 39.9305 21.7174 39.2542 21.7174C38.578 21.7174 38.0303 21.1697 38.0303 20.4935C38.0303 19.8173 38.578 19.2695 39.2542 19.2695C39.9305 19.2695 40.4782 19.8173 40.4782 20.4935Z" fill="#3393F0"/>
<path fill-rule="evenodd" clip-rule="evenodd" d="M46.598 20.4935C46.598 21.1697 46.0503 21.7174 45.374 21.7174C44.6978 21.7174 44.1501 21.1697 44.1501 20.4935C44.1501 19.8173 44.6978 19.2695 45.374 19.2695C46.0503 19.2695 46.598 19.8173 46.598 20.4935Z" fill="#3393F0"/>
<path fill-rule="evenodd" clip-rule="evenodd" d="M53.1257 20.4935C53.1257 21.1697 52.578 21.7174 51.9017 21.7174C51.2255 21.7174 50.6778 21.1697 50.6778 20.4935C50.6778 19.8173 51.2255 19.2695 51.9017 19.2695C52.578 19.2695 53.1257 19.8173 53.1257 20.4935Z" fill="#3393F0"/>
<path fill-rule="evenodd" clip-rule="evenodd" d="M59.2455 20.4935C59.2455 21.1697 58.6977 21.7174 58.0215 21.7174C57.3453 21.7174 56.7975 21.1697 56.7975 20.4935C56.7975 19.8173 57.3453 19.2695 58.0215 19.2695C58.6977 19.2695 59.2455 19.8173 59.2455 20.4935Z" fill="#3393F0"/>
<path fill-rule="evenodd" clip-rule="evenodd" d="M65.3653 20.4935C65.3653 21.1697 64.8175 21.7174 64.1413 21.7174C63.4651 21.7174 62.9174 21.1697 62.9174 20.4935C62.9174 19.8173 63.4651 19.2695 64.1413 19.2695C64.8175 19.2695 65.3653 19.8173 65.3653 20.4935Z" fill="#3393F0"/>
<path fill-rule="evenodd" clip-rule="evenodd" d="M71.893 20.4935C71.893 21.1697 71.3453 21.7174 70.669 21.7174C69.9928 21.7174 69.4451 21.1697 69.4451 20.4935C69.4451 19.8173 69.9928 19.2695 70.669 19.2695C71.3453 19.2695 71.893 19.8173 71.893 20.4935Z" fill="#3393F0"/>
<path fill-rule="evenodd" clip-rule="evenodd" d="M2.53561 27.0213C2.53561 27.6976 1.9879 28.2453 1.31166 28.2453C0.635427 28.2453 0.0877075 27.6976 0.0877075 27.0213C0.0877075 26.3451 0.635427 25.7974 1.31166 25.7974C1.9879 25.7974 2.53561 26.3451 2.53561 27.0213Z" fill="#3393F0"/>
<path fill-rule="evenodd" clip-rule="evenodd" d="M9.06336 27.0213C9.06336 27.6976 8.51564 28.2453 7.8394 28.2453C7.16317 28.2453 6.61545 27.6976 6.61545 27.0213C6.61545 26.3451 7.16317 25.7974 7.8394 25.7974C8.51564 25.7974 9.06336 26.3451 9.06336 27.0213Z" fill="#3393F0"/>
<path fill-rule="evenodd" clip-rule="evenodd" d="M15.1832 27.0213C15.1832 27.6976 14.6354 28.2453 13.9592 28.2453C13.283 28.2453 12.7353 27.6976 12.7353 27.0213C12.7353 26.3451 13.283 25.7974 13.9592 25.7974C14.6354 25.7974 15.1832 26.3451 15.1832 27.0213Z" fill="#3393F0"/>
<path fill-rule="evenodd" clip-rule="evenodd" d="M21.3029 27.0213C21.3029 27.6976 20.7552 28.2453 20.0789 28.2453C19.4027 28.2453 18.855 27.6976 18.855 27.0213C18.855 26.3451 19.4027 25.7974 20.0789 25.7974C20.7552 25.7974 21.3029 26.3451 21.3029 27.0213Z" fill="#3393F0"/>
<path fill-rule="evenodd" clip-rule="evenodd" d="M27.8306 27.0213C27.8306 27.6976 27.2829 28.2453 26.6067 28.2453C25.9304 28.2453 25.3827 27.6976 25.3827 27.0213C25.3827 26.3451 25.9304 25.7974 26.6067 25.7974C27.2829 25.7974 27.8306 26.3451 27.8306 27.0213Z" fill="#3393F0"/>
<path fill-rule="evenodd" clip-rule="evenodd" d="M33.9504 27.0213C33.9504 27.6976 33.4027 28.2453 32.7265 28.2453C32.0503 28.2453 31.5025 27.6976 31.5025 27.0213C31.5025 26.3451 32.0503 25.7974 32.7265 25.7974C33.4027 25.7974 33.9504 26.3451 33.9504 27.0213Z" fill="#3393F0"/>
<path fill-rule="evenodd" clip-rule="evenodd" d="M40.4782 27.0213C40.4782 27.6976 39.9305 28.2453 39.2542 28.2453C38.578 28.2453 38.0303 27.6976 38.0303 27.0213C38.0303 26.3451 38.578 25.7974 39.2542 25.7974C39.9305 25.7974 40.4782 26.3451 40.4782 27.0213Z" fill="#3393F0"/>
<path fill-rule="evenodd" clip-rule="evenodd" d="M46.598 27.0213C46.598 27.6976 46.0503 28.2453 45.374 28.2453C44.6978 28.2453 44.1501 27.6976 44.1501 27.0213C44.1501 26.3451 44.6978 25.7974 45.374 25.7974C46.0503 25.7974 46.598 26.3451 46.598 27.0213Z" fill="#3393F0"/>
<path fill-rule="evenodd" clip-rule="evenodd" d="M53.1257 27.0213C53.1257 27.6976 52.578 28.2453 51.9017 28.2453C51.2255 28.2453 50.6778 27.6976 50.6778 27.0213C50.6778 26.3451 51.2255 25.7974 51.9017 25.7974C52.578 25.7974 53.1257 26.3451 53.1257 27.0213Z" fill="#3393F0"/>
<path fill-rule="evenodd" clip-rule="evenodd" d="M59.2455 27.0213C59.2455 27.6976 58.6977 28.2453 58.0215 28.2453C57.3453 28.2453 56.7975 27.6976 56.7975 27.0213C56.7975 26.3451 57.3453 25.7974 58.0215 25.7974C58.6977 25.7974 59.2455 26.3451 59.2455 27.0213Z" fill="#3393F0"/>
<path fill-rule="evenodd" clip-rule="evenodd" d="M65.3653 27.0213C65.3653 27.6976 64.8175 28.2453 64.1413 28.2453C63.4651 28.2453 62.9174 27.6976 62.9174 27.0213C62.9174 26.3451 63.4651 25.7974 64.1413 25.7974C64.8175 25.7974 65.3653 26.3451 65.3653 27.0213Z" fill="#3393F0"/>
<path fill-rule="evenodd" clip-rule="evenodd" d="M71.893 27.0213C71.893 27.6976 71.3453 28.2453 70.669 28.2453C69.9928 28.2453 69.4451 27.6976 69.4451 27.0213C69.4451 26.3451 69.9928 25.7974 70.669 25.7974C71.3453 25.7974 71.893 26.3451 71.893 27.0213Z" fill="#3393F0"/>
<path fill-rule="evenodd" clip-rule="evenodd" d="M2.53561 33.1409C2.53561 33.8172 1.9879 34.3649 1.31166 34.3649C0.635427 34.3649 0.0877075 33.8172 0.0877075 33.1409C0.0877075 32.4647 0.635427 31.917 1.31166 31.917C1.9879 31.917 2.53561 32.4647 2.53561 33.1409Z" fill="#3393F0"/>
<path fill-rule="evenodd" clip-rule="evenodd" d="M9.06336 33.1409C9.06336 33.8172 8.51564 34.3649 7.8394 34.3649C7.16317 34.3649 6.61545 33.8172 6.61545 33.1409C6.61545 32.4647 7.16317 31.917 7.8394 31.917C8.51564 31.917 9.06336 32.4647 9.06336 33.1409Z" fill="#3393F0"/>
<path fill-rule="evenodd" clip-rule="evenodd" d="M15.1832 33.1409C15.1832 33.8172 14.6354 34.3649 13.9592 34.3649C13.283 34.3649 12.7353 33.8172 12.7353 33.1409C12.7353 32.4647 13.283 31.917 13.9592 31.917C14.6354 31.917 15.1832 32.4647 15.1832 33.1409Z" fill="#3393F0"/>
<path fill-rule="evenodd" clip-rule="evenodd" d="M21.3029 33.1409C21.3029 33.8172 20.7552 34.3649 20.0789 34.3649C19.4027 34.3649 18.855 33.8172 18.855 33.1409C18.855 32.4647 19.4027 31.917 20.0789 31.917C20.7552 31.917 21.3029 32.4647 21.3029 33.1409Z" fill="#3393F0"/>
<path fill-rule="evenodd" clip-rule="evenodd" d="M27.8306 33.1409C27.8306 33.8172 27.2829 34.3649 26.6067 34.3649C25.9304 34.3649 25.3827 33.8172 25.3827 33.1409C25.3827 32.4647 25.9304 31.917 26.6067 31.917C27.2829 31.917 27.8306 32.4647 27.8306 33.1409Z" fill="#3393F0"/>
<path fill-rule="evenodd" clip-rule="evenodd" d="M33.9504 33.1409C33.9504 33.8172 33.4027 34.3649 32.7265 34.3649C32.0503 34.3649 31.5025 33.8172 31.5025 33.1409C31.5025 32.4647 32.0503 31.917 32.7265 31.917C33.4027 31.917 33.9504 32.4647 33.9504 33.1409Z" fill="#3393F0"/>
<path fill-rule="evenodd" clip-rule="evenodd" d="M40.4782 33.1409C40.4782 33.8172 39.9305 34.3649 39.2542 34.3649C38.578 34.3649 38.0303 33.8172 38.0303 33.1409C38.0303 32.4647 38.578 31.917 39.2542 31.917C39.9305 31.917 40.4782 32.4647 40.4782 33.1409Z" fill="#3393F0"/>
<path fill-rule="evenodd" clip-rule="evenodd" d="M46.598 33.1409C46.598 33.8172 46.0503 34.3649 45.374 34.3649C44.6978 34.3649 44.1501 33.8172 44.1501 33.1409C44.1501 32.4647 44.6978 31.917 45.374 31.917C46.0503 31.917 46.598 32.4647 46.598 33.1409Z" fill="#3393F0"/>
<path fill-rule="evenodd" clip-rule="evenodd" d="M53.1257 33.1409C53.1257 33.8172 52.578 34.3649 51.9017 34.3649C51.2255 34.3649 50.6778 33.8172 50.6778 33.1409C50.6778 32.4647 51.2255 31.917 51.9017 31.917C52.578 31.917 53.1257 32.4647 53.1257 33.1409Z" fill="#3393F0"/>
<path fill-rule="evenodd" clip-rule="evenodd" d="M59.2455 33.1409C59.2455 33.8172 58.6977 34.3649 58.0215 34.3649C57.3453 34.3649 56.7975 33.8172 56.7975 33.1409C56.7975 32.4647 57.3453 31.917 58.0215 31.917C58.6977 31.917 59.2455 32.4647 59.2455 33.1409Z" fill="#3393F0"/>
<path fill-rule="evenodd" clip-rule="evenodd" d="M65.3653 33.1409C65.3653 33.8172 64.8175 34.3649 64.1413 34.3649C63.4651 34.3649 62.9174 33.8172 62.9174 33.1409C62.9174 32.4647 63.4651 31.917 64.1413 31.917C64.8175 31.917 65.3653 32.4647 65.3653 33.1409Z" fill="#3393F0"/>
<path fill-rule="evenodd" clip-rule="evenodd" d="M71.893 33.1409C71.893 33.8172 71.3453 34.3649 70.669 34.3649C69.9928 34.3649 69.4451 33.8172 69.4451 33.1409C69.4451 32.4647 69.9928 31.917 70.669 31.917C71.3453 31.917 71.893 32.4647 71.893 33.1409Z" fill="#3393F0"/>
<path fill-rule="evenodd" clip-rule="evenodd" d="M2.53561 39.6688C2.53561 40.345 1.9879 40.8927 1.31166 40.8927C0.635427 40.8927 0.0877075 40.345 0.0877075 39.6688C0.0877075 38.9925 0.635427 38.4448 1.31166 38.4448C1.9879 38.4448 2.53561 38.9925 2.53561 39.6688Z" fill="#3393F0"/>
<path fill-rule="evenodd" clip-rule="evenodd" d="M9.06336 39.6688C9.06336 40.345 8.51564 40.8927 7.8394 40.8927C7.16317 40.8927 6.61545 40.345 6.61545 39.6688C6.61545 38.9925 7.16317 38.4448 7.8394 38.4448C8.51564 38.4448 9.06336 38.9925 9.06336 39.6688Z" fill="#3393F0"/>
<path fill-rule="evenodd" clip-rule="evenodd" d="M15.1832 39.6688C15.1832 40.345 14.6354 40.8927 13.9592 40.8927C13.283 40.8927 12.7353 40.345 12.7353 39.6688C12.7353 38.9925 13.283 38.4448 13.9592 38.4448C14.6354 38.4448 15.1832 38.9925 15.1832 39.6688Z" fill="#3393F0"/>
<path fill-rule="evenodd" clip-rule="evenodd" d="M21.3029 39.6688C21.3029 40.345 20.7552 40.8927 20.0789 40.8927C19.4027 40.8927 18.855 40.345 18.855 39.6688C18.855 38.9925 19.4027 38.4448 20.0789 38.4448C20.7552 38.4448 21.3029 38.9925 21.3029 39.6688Z" fill="#3393F0"/>
<path fill-rule="evenodd" clip-rule="evenodd" d="M27.8306 39.6688C27.8306 40.345 27.2829 40.8927 26.6067 40.8927C25.9304 40.8927 25.3827 40.345 25.3827 39.6688C25.3827 38.9925 25.9304 38.4448 26.6067 38.4448C27.2829 38.4448 27.8306 38.9925 27.8306 39.6688Z" fill="#3393F0"/>
<path fill-rule="evenodd" clip-rule="evenodd" d="M33.9504 39.6688C33.9504 40.345 33.4027 40.8927 32.7265 40.8927C32.0503 40.8927 31.5025 40.345 31.5025 39.6688C31.5025 38.9925 32.0503 38.4448 32.7265 38.4448C33.4027 38.4448 33.9504 38.9925 33.9504 39.6688Z" fill="#3393F0"/>
<path fill-rule="evenodd" clip-rule="evenodd" d="M40.4782 39.6688C40.4782 40.345 39.9305 40.8927 39.2542 40.8927C38.578 40.8927 38.0303 40.345 38.0303 39.6688C38.0303 38.9925 38.578 38.4448 39.2542 38.4448C39.9305 38.4448 40.4782 38.9925 40.4782 39.6688Z" fill="#3393F0"/>
<path fill-rule="evenodd" clip-rule="evenodd" d="M46.598 39.6688C46.598 40.345 46.0503 40.8927 45.374 40.8927C44.6978 40.8927 44.1501 40.345 44.1501 39.6688C44.1501 38.9925 44.6978 38.4448 45.374 38.4448C46.0503 38.4448 46.598 38.9925 46.598 39.6688Z" fill="#3393F0"/>
<path fill-rule="evenodd" clip-rule="evenodd" d="M53.1257 39.6688C53.1257 40.345 52.578 40.8927 51.9017 40.8927C51.2255 40.8927 50.6778 40.345 50.6778 39.6688C50.6778 38.9925 51.2255 38.4448 51.9017 38.4448C52.578 38.4448 53.1257 38.9925 53.1257 39.6688Z" fill="#3393F0"/>
<path fill-rule="evenodd" clip-rule="evenodd" d="M59.2455 39.6688C59.2455 40.345 58.6977 40.8927 58.0215 40.8927C57.3453 40.8927 56.7975 40.345 56.7975 39.6688C56.7975 38.9925 57.3453 38.4448 58.0215 38.4448C58.6977 38.4448 59.2455 38.9925 59.2455 39.6688Z" fill="#3393F0"/>
<path fill-rule="evenodd" clip-rule="evenodd" d="M65.3653 39.6688C65.3653 40.345 64.8175 40.8927 64.1413 40.8927C63.4651 40.8927 62.9174 40.345 62.9174 39.6688C62.9174 38.9925 63.4651 38.4448 64.1413 38.4448C64.8175 38.4448 65.3653 38.9925 65.3653 39.6688Z" fill="#3393F0"/>
<path fill-rule="evenodd" clip-rule="evenodd" d="M71.893 39.6688C71.893 40.345 71.3453 40.8927 70.669 40.8927C69.9928 40.8927 69.4451 40.345 69.4451 39.6688C69.4451 38.9925 69.9928 38.4448 70.669 38.4448C71.3453 38.4448 71.893 38.9925 71.893 39.6688Z" fill="#3393F0"/>
<path fill-rule="evenodd" clip-rule="evenodd" d="M2.53561 45.7889C2.53561 46.4651 1.9879 47.0128 1.31166 47.0128C0.635427 47.0128 0.0877075 46.4651 0.0877075 45.7889C0.0877075 45.1127 0.635427 44.5649 1.31166 44.5649C1.9879 44.5649 2.53561 45.1127 2.53561 45.7889Z" fill="#3393F0"/>
<path fill-rule="evenodd" clip-rule="evenodd" d="M9.06336 45.7889C9.06336 46.4651 8.51564 47.0128 7.8394 47.0128C7.16317 47.0128 6.61545 46.4651 6.61545 45.7889C6.61545 45.1127 7.16317 44.5649 7.8394 44.5649C8.51564 44.5649 9.06336 45.1127 9.06336 45.7889Z" fill="#3393F0"/>
<path fill-rule="evenodd" clip-rule="evenodd" d="M15.1832 45.7889C15.1832 46.4651 14.6354 47.0128 13.9592 47.0128C13.283 47.0128 12.7353 46.4651 12.7353 45.7889C12.7353 45.1127 13.283 44.5649 13.9592 44.5649C14.6354 44.5649 15.1832 45.1127 15.1832 45.7889Z" fill="#3393F0"/>
<path fill-rule="evenodd" clip-rule="evenodd" d="M21.3029 45.7889C21.3029 46.4651 20.7552 47.0128 20.0789 47.0128C19.4027 47.0128 18.855 46.4651 18.855 45.7889C18.855 45.1127 19.4027 44.5649 20.0789 44.5649C20.7552 44.5649 21.3029 45.1127 21.3029 45.7889Z" fill="#3393F0"/>
<path fill-rule="evenodd" clip-rule="evenodd" d="M27.8306 45.7889C27.8306 46.4651 27.2829 47.0128 26.6067 47.0128C25.9304 47.0128 25.3827 46.4651 25.3827 45.7889C25.3827 45.1127 25.9304 44.5649 26.6067 44.5649C27.2829 44.5649 27.8306 45.1127 27.8306 45.7889Z" fill="#3393F0"/>
<path fill-rule="evenodd" clip-rule="evenodd" d="M33.9504 45.7889C33.9504 46.4651 33.4027 47.0128 32.7265 47.0128C32.0503 47.0128 31.5025 46.4651 31.5025 45.7889C31.5025 45.1127 32.0503 44.5649 32.7265 44.5649C33.4027 44.5649 33.9504 45.1127 33.9504 45.7889Z" fill="#3393F0"/>
<path fill-rule="evenodd" clip-rule="evenodd" d="M40.4782 45.7889C40.4782 46.4651 39.9305 47.0128 39.2542 47.0128C38.578 47.0128 38.0303 46.4651 38.0303 45.7889C38.0303 45.1127 38.578 44.5649 39.2542 44.5649C39.9305 44.5649 40.4782 45.1127 40.4782 45.7889Z" fill="#3393F0"/>
<path fill-rule="evenodd" clip-rule="evenodd" d="M46.598 45.7889C46.598 46.4651 46.0503 47.0128 45.374 47.0128C44.6978 47.0128 44.1501 46.4651 44.1501 45.7889C44.1501 45.1127 44.6978 44.5649 45.374 44.5649C46.0503 44.5649 46.598 45.1127 46.598 45.7889Z" fill="#3393F0"/>
<path fill-rule="evenodd" clip-rule="evenodd" d="M53.1257 45.7889C53.1257 46.4651 52.578 47.0128 51.9017 47.0128C51.2255 47.0128 50.6778 46.4651 50.6778 45.7889C50.6778 45.1127 51.2255 44.5649 51.9017 44.5649C52.578 44.5649 53.1257 45.1127 53.1257 45.7889Z" fill="#3393F0"/>
<path fill-rule="evenodd" clip-rule="evenodd" d="M59.2455 45.7889C59.2455 46.4651 58.6977 47.0128 58.0215 47.0128C57.3453 47.0128 56.7975 46.4651 56.7975 45.7889C56.7975 45.1127 57.3453 44.5649 58.0215 44.5649C58.6977 44.5649 59.2455 45.1127 59.2455 45.7889Z" fill="#3393F0"/>
<path fill-rule="evenodd" clip-rule="evenodd" d="M65.3653 45.7889C65.3653 46.4651 64.8175 47.0128 64.1413 47.0128C63.4651 47.0128 62.9174 46.4651 62.9174 45.7889C62.9174 45.1127 63.4651 44.5649 64.1413 44.5649C64.8175 44.5649 65.3653 45.1127 65.3653 45.7889Z" fill="#3393F0"/>
<path fill-rule="evenodd" clip-rule="evenodd" d="M71.893 45.7889C71.893 46.4651 71.3453 47.0128 70.669 47.0128C69.9928 47.0128 69.4451 46.4651 69.4451 45.7889C69.4451 45.1127 69.9928 44.5649 70.669 44.5649C71.3453 44.5649 71.893 45.1127 71.893 45.7889Z" fill="#3393F0"/>
<path fill-rule="evenodd" clip-rule="evenodd" d="M2.53561 51.9085C2.53561 52.5848 1.9879 53.1325 1.31166 53.1325C0.635427 53.1325 0.0877075 52.5848 0.0877075 51.9085C0.0877075 51.2323 0.635427 50.6846 1.31166 50.6846C1.9879 50.6846 2.53561 51.2323 2.53561 51.9085Z" fill="#3393F0"/>
<path fill-rule="evenodd" clip-rule="evenodd" d="M9.06336 51.9085C9.06336 52.5848 8.51564 53.1325 7.8394 53.1325C7.16317 53.1325 6.61545 52.5848 6.61545 51.9085C6.61545 51.2323 7.16317 50.6846 7.8394 50.6846C8.51564 50.6846 9.06336 51.2323 9.06336 51.9085Z" fill="#3393F0"/>
<path fill-rule="evenodd" clip-rule="evenodd" d="M15.1832 51.9085C15.1832 52.5848 14.6354 53.1325 13.9592 53.1325C13.283 53.1325 12.7353 52.5848 12.7353 51.9085C12.7353 51.2323 13.283 50.6846 13.9592 50.6846C14.6354 50.6846 15.1832 51.2323 15.1832 51.9085Z" fill="#3393F0"/>
<path fill-rule="evenodd" clip-rule="evenodd" d="M21.3029 51.9085C21.3029 52.5848 20.7552 53.1325 20.0789 53.1325C19.4027 53.1325 18.855 52.5848 18.855 51.9085C18.855 51.2323 19.4027 50.6846 20.0789 50.6846C20.7552 50.6846 21.3029 51.2323 21.3029 51.9085Z" fill="#3393F0"/>
<path fill-rule="evenodd" clip-rule="evenodd" d="M27.8306 51.9085C27.8306 52.5848 27.2829 53.1325 26.6067 53.1325C25.9304 53.1325 25.3827 52.5848 25.3827 51.9085C25.3827 51.2323 25.9304 50.6846 26.6067 50.6846C27.2829 50.6846 27.8306 51.2323 27.8306 51.9085Z" fill="#3393F0"/>
<path fill-rule="evenodd" clip-rule="evenodd" d="M33.9504 51.9085C33.9504 52.5848 33.4027 53.1325 32.7265 53.1325C32.0503 53.1325 31.5025 52.5848 31.5025 51.9085C31.5025 51.2323 32.0503 50.6846 32.7265 50.6846C33.4027 50.6846 33.9504 51.2323 33.9504 51.9085Z" fill="#3393F0"/>
<path fill-rule="evenodd" clip-rule="evenodd" d="M40.4782 51.9085C40.4782 52.5848 39.9305 53.1325 39.2542 53.1325C38.578 53.1325 38.0303 52.5848 38.0303 51.9085C38.0303 51.2323 38.578 50.6846 39.2542 50.6846C39.9305 50.6846 40.4782 51.2323 40.4782 51.9085Z" fill="#3393F0"/>
<path fill-rule="evenodd" clip-rule="evenodd" d="M46.598 51.9085C46.598 52.5848 46.0503 53.1325 45.374 53.1325C44.6978 53.1325 44.1501 52.5848 44.1501 51.9085C44.1501 51.2323 44.6978 50.6846 45.374 50.6846C46.0503 50.6846 46.598 51.2323 46.598 51.9085Z" fill="#3393F0"/>
<path fill-rule="evenodd" clip-rule="evenodd" d="M53.1257 51.9085C53.1257 52.5848 52.578 53.1325 51.9017 53.1325C51.2255 53.1325 50.6778 52.5848 50.6778 51.9085C50.6778 51.2323 51.2255 50.6846 51.9017 50.6846C52.578 50.6846 53.1257 51.2323 53.1257 51.9085Z" fill="#3393F0"/>
<path fill-rule="evenodd" clip-rule="evenodd" d="M59.2455 51.9085C59.2455 52.5848 58.6977 53.1325 58.0215 53.1325C57.3453 53.1325 56.7975 52.5848 56.7975 51.9085C56.7975 51.2323 57.3453 50.6846 58.0215 50.6846C58.6977 50.6846 59.2455 51.2323 59.2455 51.9085Z" fill="#3393F0"/>
<path fill-rule="evenodd" clip-rule="evenodd" d="M65.3653 51.9085C65.3653 52.5848 64.8175 53.1325 64.1413 53.1325C63.4651 53.1325 62.9174 52.5848 62.9174 51.9085C62.9174 51.2323 63.4651 50.6846 64.1413 50.6846C64.8175 50.6846 65.3653 51.2323 65.3653 51.9085Z" fill="#3393F0"/>
<path fill-rule="evenodd" clip-rule="evenodd" d="M71.893 51.9085C71.893 52.5848 71.3453 53.1325 70.669 53.1325C69.9928 53.1325 69.4451 52.5848 69.4451 51.9085C69.4451 51.2323 69.9928 50.6846 70.669 50.6846C71.3453 50.6846 71.893 51.2323 71.893 51.9085Z" fill="#3393F0"/>
<path fill-rule="evenodd" clip-rule="evenodd" d="M2.53561 58.4364C2.53561 59.1126 1.9879 59.6603 1.31166 59.6603C0.635427 59.6603 0.0877075 59.1126 0.0877075 58.4364C0.0877075 57.7601 0.635427 57.2124 1.31166 57.2124C1.9879 57.2124 2.53561 57.7601 2.53561 58.4364Z" fill="#3393F0"/>
<path fill-rule="evenodd" clip-rule="evenodd" d="M9.06336 58.4364C9.06336 59.1126 8.51564 59.6603 7.8394 59.6603C7.16317 59.6603 6.61545 59.1126 6.61545 58.4364C6.61545 57.7601 7.16317 57.2124 7.8394 57.2124C8.51564 57.2124 9.06336 57.7601 9.06336 58.4364Z" fill="#3393F0"/>
<path fill-rule="evenodd" clip-rule="evenodd" d="M15.1832 58.4364C15.1832 59.1126 14.6354 59.6603 13.9592 59.6603C13.283 59.6603 12.7353 59.1126 12.7353 58.4364C12.7353 57.7601 13.283 57.2124 13.9592 57.2124C14.6354 57.2124 15.1832 57.7601 15.1832 58.4364Z" fill="#3393F0"/>
<path fill-rule="evenodd" clip-rule="evenodd" d="M21.3029 58.4364C21.3029 59.1126 20.7552 59.6603 20.0789 59.6603C19.4027 59.6603 18.855 59.1126 18.855 58.4364C18.855 57.7601 19.4027 57.2124 20.0789 57.2124C20.7552 57.2124 21.3029 57.7601 21.3029 58.4364Z" fill="#3393F0"/>
<path fill-rule="evenodd" clip-rule="evenodd" d="M27.8306 58.4364C27.8306 59.1126 27.2829 59.6603 26.6067 59.6603C25.9304 59.6603 25.3827 59.1126 25.3827 58.4364C25.3827 57.7601 25.9304 57.2124 26.6067 57.2124C27.2829 57.2124 27.8306 57.7601 27.8306 58.4364Z" fill="#3393F0"/>
<path fill-rule="evenodd" clip-rule="evenodd" d="M33.9504 58.4364C33.9504 59.1126 33.4027 59.6603 32.7265 59.6603C32.0503 59.6603 31.5025 59.1126 31.5025 58.4364C31.5025 57.7601 32.0503 57.2124 32.7265 57.2124C33.4027 57.2124 33.9504 57.7601 33.9504 58.4364Z" fill="#3393F0"/>
<path fill-rule="evenodd" clip-rule="evenodd" d="M40.4782 58.4364C40.4782 59.1126 39.9305 59.6603 39.2542 59.6603C38.578 59.6603 38.0303 59.1126 38.0303 58.4364C38.0303 57.7601 38.578 57.2124 39.2542 57.2124C39.9305 57.2124 40.4782 57.7601 40.4782 58.4364Z" fill="#3393F0"/>
<path fill-rule="evenodd" clip-rule="evenodd" d="M46.598 58.4364C46.598 59.1126 46.0503 59.6603 45.374 59.6603C44.6978 59.6603 44.1501 59.1126 44.1501 58.4364C44.1501 57.7601 44.6978 57.2124 45.374 57.2124C46.0503 57.2124 46.598 57.7601 46.598 58.4364Z" fill="#3393F0"/>
<path fill-rule="evenodd" clip-rule="evenodd" d="M53.1257 58.4364C53.1257 59.1126 52.578 59.6603 51.9017 59.6603C51.2255 59.6603 50.6778 59.1126 50.6778 58.4364C50.6778 57.7601 51.2255 57.2124 51.9017 57.2124C52.578 57.2124 53.1257 57.7601 53.1257 58.4364Z" fill="#3393F0"/>
<path fill-rule="evenodd" clip-rule="evenodd" d="M59.2455 58.4364C59.2455 59.1126 58.6977 59.6603 58.0215 59.6603C57.3453 59.6603 56.7975 59.1126 56.7975 58.4364C56.7975 57.7601 57.3453 57.2124 58.0215 57.2124C58.6977 57.2124 59.2455 57.7601 59.2455 58.4364Z" fill="#3393F0"/>
<path fill-rule="evenodd" clip-rule="evenodd" d="M65.3653 58.4364C65.3653 59.1126 64.8175 59.6603 64.1413 59.6603C63.4651 59.6603 62.9174 59.1126 62.9174 58.4364C62.9174 57.7601 63.4651 57.2124 64.1413 57.2124C64.8175 57.2124 65.3653 57.7601 65.3653 58.4364Z" fill="#3393F0"/>
<path fill-rule="evenodd" clip-rule="evenodd" d="M71.893 58.4364C71.893 59.1126 71.3453 59.6603 70.669 59.6603C69.9928 59.6603 69.4451 59.1126 69.4451 58.4364C69.4451 57.7601 69.9928 57.2124 70.669 57.2124C71.3453 57.2124 71.893 57.7601 71.893 58.4364Z" fill="#3393F0"/>
<path fill-rule="evenodd" clip-rule="evenodd" d="M2.53561 64.556C2.53561 65.2322 1.9879 65.7799 1.31166 65.7799C0.635427 65.7799 0.0877075 65.2322 0.0877075 64.556C0.0877075 63.8798 0.635427 63.332 1.31166 63.332C1.9879 63.332 2.53561 63.8798 2.53561 64.556Z" fill="#3393F0"/>
<path fill-rule="evenodd" clip-rule="evenodd" d="M9.06336 64.556C9.06336 65.2322 8.51564 65.7799 7.8394 65.7799C7.16317 65.7799 6.61545 65.2322 6.61545 64.556C6.61545 63.8798 7.16317 63.332 7.8394 63.332C8.51564 63.332 9.06336 63.8798 9.06336 64.556Z" fill="#3393F0"/>
<path fill-rule="evenodd" clip-rule="evenodd" d="M15.1832 64.556C15.1832 65.2322 14.6354 65.7799 13.9592 65.7799C13.283 65.7799 12.7353 65.2322 12.7353 64.556C12.7353 63.8798 13.283 63.332 13.9592 63.332C14.6354 63.332 15.1832 63.8798 15.1832 64.556Z" fill="#3393F0"/>
<path fill-rule="evenodd" clip-rule="evenodd" d="M21.3029 64.556C21.3029 65.2322 20.7552 65.7799 20.0789 65.7799C19.4027 65.7799 18.855 65.2322 18.855 64.556C18.855 63.8798 19.4027 63.332 20.0789 63.332C20.7552 63.332 21.3029 63.8798 21.3029 64.556Z" fill="#3393F0"/>
<path fill-rule="evenodd" clip-rule="evenodd" d="M27.8306 64.556C27.8306 65.2322 27.2829 65.7799 26.6067 65.7799C25.9304 65.7799 25.3827 65.2322 25.3827 64.556C25.3827 63.8798 25.9304 63.332 26.6067 63.332C27.2829 63.332 27.8306 63.8798 27.8306 64.556Z" fill="#3393F0"/>
<path fill-rule="evenodd" clip-rule="evenodd" d="M33.9504 64.556C33.9504 65.2322 33.4027 65.7799 32.7265 65.7799C32.0503 65.7799 31.5025 65.2322 31.5025 64.556C31.5025 63.8798 32.0503 63.332 32.7265 63.332C33.4027 63.332 33.9504 63.8798 33.9504 64.556Z" fill="#3393F0"/>
<path fill-rule="evenodd" clip-rule="evenodd" d="M40.4782 64.556C40.4782 65.2322 39.9305 65.7799 39.2542 65.7799C38.578 65.7799 38.0303 65.2322 38.0303 64.556C38.0303 63.8798 38.578 63.332 39.2542 63.332C39.9305 63.332 40.4782 63.8798 40.4782 64.556Z" fill="#3393F0"/>
<path fill-rule="evenodd" clip-rule="evenodd" d="M46.598 64.556C46.598 65.2322 46.0503 65.7799 45.374 65.7799C44.6978 65.7799 44.1501 65.2322 44.1501 64.556C44.1501 63.8798 44.6978 63.332 45.374 63.332C46.0503 63.332 46.598 63.8798 46.598 64.556Z" fill="#3393F0"/>
<path fill-rule="evenodd" clip-rule="evenodd" d="M53.1257 64.556C53.1257 65.2322 52.578 65.7799 51.9017 65.7799C51.2255 65.7799 50.6778 65.2322 50.6778 64.556C50.6778 63.8798 51.2255 63.332 51.9017 63.332C52.578 63.332 53.1257 63.8798 53.1257 64.556Z" fill="#3393F0"/>
<path fill-rule="evenodd" clip-rule="evenodd" d="M59.2455 64.556C59.2455 65.2322 58.6977 65.7799 58.0215 65.7799C57.3453 65.7799 56.7975 65.2322 56.7975 64.556C56.7975 63.8798 57.3453 63.332 58.0215 63.332C58.6977 63.332 59.2455 63.8798 59.2455 64.556Z" fill="#3393F0"/>
<path fill-rule="evenodd" clip-rule="evenodd" d="M65.3653 64.556C65.3653 65.2322 64.8175 65.7799 64.1413 65.7799C63.4651 65.7799 62.9174 65.2322 62.9174 64.556C62.9174 63.8798 63.4651 63.332 64.1413 63.332C64.8175 63.332 65.3653 63.8798 65.3653 64.556Z" fill="#3393F0"/>
<path fill-rule="evenodd" clip-rule="evenodd" d="M71.893 64.556C71.893 65.2322 71.3453 65.7799 70.669 65.7799C69.9928 65.7799 69.4451 65.2322 69.4451 64.556C69.4451 63.8798 69.9928 63.332 70.669 63.332C71.3453 63.332 71.893 63.8798 71.893 64.556Z" fill="#3393F0"/>
<path fill-rule="evenodd" clip-rule="evenodd" d="M2.53561 71.0838C2.53561 71.7601 1.9879 72.3078 1.31166 72.3078C0.635427 72.3078 0.0877075 71.7601 0.0877075 71.0838C0.0877075 70.4076 0.635427 69.8599 1.31166 69.8599C1.9879 69.8599 2.53561 70.4076 2.53561 71.0838Z" fill="#3393F0"/>
<path fill-rule="evenodd" clip-rule="evenodd" d="M9.06336 71.0838C9.06336 71.7601 8.51564 72.3078 7.8394 72.3078C7.16317 72.3078 6.61545 71.7601 6.61545 71.0838C6.61545 70.4076 7.16317 69.8599 7.8394 69.8599C8.51564 69.8599 9.06336 70.4076 9.06336 71.0838Z" fill="#3393F0"/>
<path fill-rule="evenodd" clip-rule="evenodd" d="M15.1832 71.0838C15.1832 71.7601 14.6354 72.3078 13.9592 72.3078C13.283 72.3078 12.7353 71.7601 12.7353 71.0838C12.7353 70.4076 13.283 69.8599 13.9592 69.8599C14.6354 69.8599 15.1832 70.4076 15.1832 71.0838Z" fill="#3393F0"/>
<path fill-rule="evenodd" clip-rule="evenodd" d="M21.3029 71.0838C21.3029 71.7601 20.7552 72.3078 20.0789 72.3078C19.4027 72.3078 18.855 71.7601 18.855 71.0838C18.855 70.4076 19.4027 69.8599 20.0789 69.8599C20.7552 69.8599 21.3029 70.4076 21.3029 71.0838Z" fill="#3393F0"/>
<path fill-rule="evenodd" clip-rule="evenodd" d="M27.8306 71.0838C27.8306 71.7601 27.2829 72.3078 26.6067 72.3078C25.9304 72.3078 25.3827 71.7601 25.3827 71.0838C25.3827 70.4076 25.9304 69.8599 26.6067 69.8599C27.2829 69.8599 27.8306 70.4076 27.8306 71.0838Z" fill="#3393F0"/>
<path fill-rule="evenodd" clip-rule="evenodd" d="M33.9504 71.0838C33.9504 71.7601 33.4027 72.3078 32.7265 72.3078C32.0503 72.3078 31.5025 71.7601 31.5025 71.0838C31.5025 70.4076 32.0503 69.8599 32.7265 69.8599C33.4027 69.8599 33.9504 70.4076 33.9504 71.0838Z" fill="#3393F0"/>
<path fill-rule="evenodd" clip-rule="evenodd" d="M40.4782 71.0838C40.4782 71.7601 39.9305 72.3078 39.2542 72.3078C38.578 72.3078 38.0303 71.7601 38.0303 71.0838C38.0303 70.4076 38.578 69.8599 39.2542 69.8599C39.9305 69.8599 40.4782 70.4076 40.4782 71.0838Z" fill="#3393F0"/>
<path fill-rule="evenodd" clip-rule="evenodd" d="M46.598 71.0838C46.598 71.7601 46.0503 72.3078 45.374 72.3078C44.6978 72.3078 44.1501 71.7601 44.1501 71.0838C44.1501 70.4076 44.6978 69.8599 45.374 69.8599C46.0503 69.8599 46.598 70.4076 46.598 71.0838Z" fill="#3393F0"/>
<path fill-rule="evenodd" clip-rule="evenodd" d="M53.1257 71.0838C53.1257 71.7601 52.578 72.3078 51.9017 72.3078C51.2255 72.3078 50.6778 71.7601 50.6778 71.0838C50.6778 70.4076 51.2255 69.8599 51.9017 69.8599C52.578 69.8599 53.1257 70.4076 53.1257 71.0838Z" fill="#3393F0"/>
<path fill-rule="evenodd" clip-rule="evenodd" d="M59.2455 71.0838C59.2455 71.7601 58.6977 72.3078 58.0215 72.3078C57.3453 72.3078 56.7975 71.7601 56.7975 71.0838C56.7975 70.4076 57.3453 69.8599 58.0215 69.8599C58.6977 69.8599 59.2455 70.4076 59.2455 71.0838Z" fill="#3393F0"/>
<path fill-rule="evenodd" clip-rule="evenodd" d="M65.3653 71.0838C65.3653 71.7601 64.8175 72.3078 64.1413 72.3078C63.4651 72.3078 62.9174 71.7601 62.9174 71.0838C62.9174 70.4076 63.4651 69.8599 64.1413 69.8599C64.8175 69.8599 65.3653 70.4076 65.3653 71.0838Z" fill="#3393F0"/>
<path fill-rule="evenodd" clip-rule="evenodd" d="M71.893 71.0838C71.893 71.7601 71.3453 72.3078 70.669 72.3078C69.9928 72.3078 69.4451 71.7601 69.4451 71.0838C69.4451 70.4076 69.9928 69.8599 70.669 69.8599C71.3453 69.8599 71.893 70.4076 71.893 71.0838Z" fill="#3393F0"/>
<path fill-rule="evenodd" clip-rule="evenodd" d="M2.53561 77.2034C2.53561 77.8797 1.9879 78.4274 1.31166 78.4274C0.635427 78.4274 0.0877075 77.8797 0.0877075 77.2034C0.0877075 76.5272 0.635427 75.9795 1.31166 75.9795C1.9879 75.9795 2.53561 76.5272 2.53561 77.2034Z" fill="#3393F0"/>
<path fill-rule="evenodd" clip-rule="evenodd" d="M9.06336 77.2034C9.06336 77.8797 8.51564 78.4274 7.8394 78.4274C7.16317 78.4274 6.61545 77.8797 6.61545 77.2034C6.61545 76.5272 7.16317 75.9795 7.8394 75.9795C8.51564 75.9795 9.06336 76.5272 9.06336 77.2034Z" fill="#3393F0"/>
<path fill-rule="evenodd" clip-rule="evenodd" d="M15.1832 77.2034C15.1832 77.8797 14.6354 78.4274 13.9592 78.4274C13.283 78.4274 12.7353 77.8797 12.7353 77.2034C12.7353 76.5272 13.283 75.9795 13.9592 75.9795C14.6354 75.9795 15.1832 76.5272 15.1832 77.2034Z" fill="#3393F0"/>
<path fill-rule="evenodd" clip-rule="evenodd" d="M21.3029 77.2034C21.3029 77.8797 20.7552 78.4274 20.0789 78.4274C19.4027 78.4274 18.855 77.8797 18.855 77.2034C18.855 76.5272 19.4027 75.9795 20.0789 75.9795C20.7552 75.9795 21.3029 76.5272 21.3029 77.2034Z" fill="#3393F0"/>
<path fill-rule="evenodd" clip-rule="evenodd" d="M27.8306 77.2034C27.8306 77.8797 27.2829 78.4274 26.6067 78.4274C25.9304 78.4274 25.3827 77.8797 25.3827 77.2034C25.3827 76.5272 25.9304 75.9795 26.6067 75.9795C27.2829 75.9795 27.8306 76.5272 27.8306 77.2034Z" fill="#3393F0"/>
<path fill-rule="evenodd" clip-rule="evenodd" d="M33.9504 77.2034C33.9504 77.8797 33.4027 78.4274 32.7265 78.4274C32.0503 78.4274 31.5025 77.8797 31.5025 77.2034C31.5025 76.5272 32.0503 75.9795 32.7265 75.9795C33.4027 75.9795 33.9504 76.5272 33.9504 77.2034Z" fill="#3393F0"/>
<path fill-rule="evenodd" clip-rule="evenodd" d="M40.4782 77.2034C40.4782 77.8797 39.9305 78.4274 39.2542 78.4274C38.578 78.4274 38.0303 77.8797 38.0303 77.2034C38.0303 76.5272 38.578 75.9795 39.2542 75.9795C39.9305 75.9795 40.4782 76.5272 40.4782 77.2034Z" fill="#3393F0"/>
<path fill-rule="evenodd" clip-rule="evenodd" d="M46.598 77.2034C46.598 77.8797 46.0503 78.4274 45.374 78.4274C44.6978 78.4274 44.1501 77.8797 44.1501 77.2034C44.1501 76.5272 44.6978 75.9795 45.374 75.9795C46.0503 75.9795 46.598 76.5272 46.598 77.2034Z" fill="#3393F0"/>
<path fill-rule="evenodd" clip-rule="evenodd" d="M53.1257 77.2034C53.1257 77.8797 52.578 78.4274 51.9017 78.4274C51.2255 78.4274 50.6778 77.8797 50.6778 77.2034C50.6778 76.5272 51.2255 75.9795 51.9017 75.9795C52.578 75.9795 53.1257 76.5272 53.1257 77.2034Z" fill="#3393F0"/>
<path fill-rule="evenodd" clip-rule="evenodd" d="M59.2455 77.2034C59.2455 77.8797 58.6977 78.4274 58.0215 78.4274C57.3453 78.4274 56.7975 77.8797 56.7975 77.2034C56.7975 76.5272 57.3453 75.9795 58.0215 75.9795C58.6977 75.9795 59.2455 76.5272 59.2455 77.2034Z" fill="#3393F0"/>
<path fill-rule="evenodd" clip-rule="evenodd" d="M65.3653 77.2034C65.3653 77.8797 64.8175 78.4274 64.1413 78.4274C63.4651 78.4274 62.9174 77.8797 62.9174 77.2034C62.9174 76.5272 63.4651 75.9795 64.1413 75.9795C64.8175 75.9795 65.3653 76.5272 65.3653 77.2034Z" fill="#3393F0"/>
<path fill-rule="evenodd" clip-rule="evenodd" d="M71.893 77.2034C71.893 77.8797 71.3453 78.4274 70.669 78.4274C69.9928 78.4274 69.4451 77.8797 69.4451 77.2034C69.4451 76.5272 69.9928 75.9795 70.669 75.9795C71.3453 75.9795 71.893 76.5272 71.893 77.2034Z" fill="#3393F0"/>
<path fill-rule="evenodd" clip-rule="evenodd" d="M9.06336 1.7264C9.06336 2.40263 8.51564 2.95035 7.8394 2.95035C7.16317 2.95035 6.61545 2.40263 6.61545 1.7264C6.61545 1.05016 7.16317 0.502441 7.8394 0.502441C8.51564 0.502441 9.06336 1.05016 9.06336 1.7264Z" fill="#3393F0"/>
<path fill-rule="evenodd" clip-rule="evenodd" d="M15.1832 1.7264C15.1832 2.40263 14.6354 2.95035 13.9592 2.95035C13.283 2.95035 12.7353 2.40263 12.7353 1.7264C12.7353 1.05016 13.283 0.502441 13.9592 0.502441C14.6354 0.502441 15.1832 1.05016 15.1832 1.7264Z" fill="#3393F0"/>
<path fill-rule="evenodd" clip-rule="evenodd" d="M21.3029 1.7264C21.3029 2.40263 20.7552 2.95035 20.0789 2.95035C19.4027 2.95035 18.855 2.40263 18.855 1.7264C18.855 1.05016 19.4027 0.502441 20.0789 0.502441C20.7552 0.502441 21.3029 1.05016 21.3029 1.7264Z" fill="#3393F0"/>
<path fill-rule="evenodd" clip-rule="evenodd" d="M27.8306 1.7264C27.8306 2.40263 27.2829 2.95035 26.6067 2.95035C25.9304 2.95035 25.3827 2.40263 25.3827 1.7264C25.3827 1.05016 25.9304 0.502441 26.6067 0.502441C27.2829 0.502441 27.8306 1.05016 27.8306 1.7264Z" fill="#3393F0"/>
<path fill-rule="evenodd" clip-rule="evenodd" d="M33.9504 1.7264C33.9504 2.40263 33.4027 2.95035 32.7265 2.95035C32.0503 2.95035 31.5025 2.40263 31.5025 1.7264C31.5025 1.05016 32.0503 0.502441 32.7265 0.502441C33.4027 0.502441 33.9504 1.05016 33.9504 1.7264Z" fill="#3393F0"/>
<path fill-rule="evenodd" clip-rule="evenodd" d="M40.4782 1.7264C40.4782 2.40263 39.9305 2.95035 39.2542 2.95035C38.578 2.95035 38.0303 2.40263 38.0303 1.7264C38.0303 1.05016 38.578 0.502441 39.2542 0.502441C39.9305 0.502441 40.4782 1.05016 40.4782 1.7264Z" fill="#3393F0"/>
<path fill-rule="evenodd" clip-rule="evenodd" d="M46.598 1.7264C46.598 2.40263 46.0503 2.95035 45.374 2.95035C44.6978 2.95035 44.1501 2.40263 44.1501 1.7264C44.1501 1.05016 44.6978 0.502441 45.374 0.502441C46.0503 0.502441 46.598 1.05016 46.598 1.7264Z" fill="#3393F0"/>
<path fill-rule="evenodd" clip-rule="evenodd" d="M53.1257 1.7264C53.1257 2.40263 52.578 2.95035 51.9017 2.95035C51.2255 2.95035 50.6778 2.40263 50.6778 1.7264C50.6778 1.05016 51.2255 0.502441 51.9017 0.502441C52.578 0.502441 53.1257 1.05016 53.1257 1.7264Z" fill="#3393F0"/>
<path fill-rule="evenodd" clip-rule="evenodd" d="M59.2455 1.7264C59.2455 2.40263 58.6977 2.95035 58.0215 2.95035C57.3453 2.95035 56.7975 2.40263 56.7975 1.7264C56.7975 1.05016 57.3453 0.502441 58.0215 0.502441C58.6977 0.502441 59.2455 1.05016 59.2455 1.7264Z" fill="#3393F0"/>
<path fill-rule="evenodd" clip-rule="evenodd" d="M65.3653 1.7264C65.3653 2.40263 64.8175 2.95035 64.1413 2.95035C63.4651 2.95035 62.9174 2.40263 62.9174 1.7264C62.9174 1.05016 63.4651 0.502441 64.1413 0.502441C64.8175 0.502441 65.3653 1.05016 65.3653 1.7264Z" fill="#3393F0"/>
<path fill-rule="evenodd" clip-rule="evenodd" d="M71.893 1.7264C71.893 2.40263 71.3453 2.95035 70.669 2.95035C69.9928 2.95035 69.4451 2.40263 69.4451 1.7264C69.4451 1.05016 69.9928 0.502441 70.669 0.502441C71.3453 0.502441 71.893 1.05016 71.893 1.7264Z" fill="#3393F0"/>
</svg>
