<svg width="16" height="16" viewBox="0 0 16 16" fill="none" xmlns="http://www.w3.org/2000/svg">
<path fill-rule="evenodd" clip-rule="evenodd" d="M13.1974 9.51782C12.982 9.42955 12.7514 9.38413 12.5185 9.38411C12.3009 9.37172 12.0835 9.41129 11.8842 9.49954C11.7118 9.58272 11.5473 9.68141 11.3928 9.7944C11.2424 9.90355 11.1048 10.0293 10.9825 10.1693C10.8637 10.3064 10.7482 10.4321 10.6351 10.5453C10.5324 10.6491 10.4215 10.7447 10.3037 10.831C10.1846 10.9163 10.0389 10.9559 9.89312 10.9427C9.74731 10.9295 9.61111 10.8643 9.50936 10.759C9.38357 10.641 9.25862 10.5221 9.1345 10.4024C8.9745 10.247 8.77793 10.0595 8.54592 9.83897C8.30313 9.60868 8.06198 9.37668 7.82249 9.14296L7.04534 8.3841C6.56817 7.91756 6.10694 7.435 5.66246 6.93722C5.50283 6.76173 5.35362 6.57703 5.2156 6.38407C5.10817 6.22979 5.05446 6.11664 5.05446 6.04464C5.04782 5.91564 5.08891 5.78871 5.16989 5.68807C5.25331 5.58064 5.35274 5.47092 5.46475 5.35663C5.57903 5.24463 5.70361 5.12463 5.83961 5.00006C5.97675 4.87434 6.10247 4.74063 6.21561 4.59777C6.32761 4.45491 6.42361 4.29148 6.50133 4.10633C6.5779 3.92347 6.61676 3.71433 6.61676 3.48233C6.61675 3.01072 6.43071 2.55815 6.09904 2.22288C5.88551 2.01328 5.68296 1.7928 5.49217 1.5623C5.27413 1.30265 5.03852 1.05827 4.78702 0.830867C4.54288 0.607441 4.27632 0.40982 3.99159 0.241146C3.73299 0.084605 3.43672 0.00125521 3.13443 0C2.66322 0.000312956 2.21112 0.186327 1.87613 0.51772C1.56642 0.827438 1.29556 1.10401 1.06355 1.34859C0.8409 1.58015 0.643238 1.83451 0.473832 2.10745C0.309655 2.37828 0.189312 2.67335 0.117256 2.98175C0.0333637 3.36295 -0.00575847 3.75264 0.000683334 4.1429C0.000683334 4.77377 0.102399 5.42863 0.304687 6.1075C0.506975 6.78522 0.780121 7.4618 1.12527 8.13381C1.47041 8.80696 1.89099 9.46754 2.38471 10.1167C2.87843 10.7647 3.41444 11.3807 3.99159 11.9647C4.56874 12.5476 5.18246 13.087 5.83161 13.5807C6.47961 14.0744 7.14362 14.5007 7.82249 14.8573C8.50021 15.215 9.1825 15.4939 9.86708 15.6962C10.5156 15.8933 11.1893 15.9957 11.8671 16.0002C12.2545 16 12.6408 15.9578 13.0191 15.8745C13.3309 15.8041 13.6293 15.6837 13.9026 15.5179C14.1654 15.3579 14.4168 15.1613 14.6614 14.9293C14.906 14.6962 15.1791 14.4287 15.4831 14.1247C15.8147 13.7894 16.0007 13.3369 16.0009 12.8653C15.9879 12.6648 15.9487 12.467 15.8843 12.2767C15.8174 12.0774 15.7182 11.8906 15.5906 11.7236C15.4572 11.5485 15.3169 11.3788 15.17 11.215C15.0187 11.0455 14.858 10.8844 14.6889 10.7327C14.5255 10.5863 14.3617 10.4404 14.1974 10.295C14.0537 10.1682 13.9138 10.0371 13.778 9.90183C13.6124 9.73587 13.4149 9.60523 13.1974 9.51782ZM12.778 14.759C12.4798 14.8307 12.1737 14.8637 11.8671 14.8573C11.2795 14.8462 10.6964 14.7531 10.1345 14.5807C9.50585 14.3907 8.89844 14.1364 8.32192 13.8219C7.04017 13.12 5.86715 12.2357 4.8396 11.1967C4.3173 10.6685 3.82545 10.111 3.36644 9.52697C2.9208 8.96231 2.52683 8.35873 2.18928 7.72352C1.87467 7.13617 1.61711 6.52001 1.42013 5.8835C1.24115 5.31143 1.14795 4.71601 1.14355 4.11662C1.14326 3.81246 1.17933 3.50935 1.25098 3.21375C1.31613 2.96461 1.41441 2.7406 1.54584 2.54517C1.67613 2.3486 1.83728 2.15774 2.02699 1.97374C2.21785 1.78859 2.435 1.57373 2.67843 1.3303C2.73769 1.26937 2.80886 1.22128 2.88751 1.18903C2.96615 1.15679 3.05059 1.14107 3.13558 1.14287C3.20643 1.13716 3.31615 1.18401 3.46472 1.28573C3.6133 1.38744 3.77444 1.50859 3.94701 1.65145C4.31971 1.96232 4.66358 2.3062 4.97445 2.67889C5.11731 2.85032 5.23617 3.00918 5.33103 3.15204C5.42589 3.29489 5.47389 3.40461 5.47389 3.48233C5.48415 3.61178 5.44264 3.74002 5.35846 3.8389C5.27503 3.9349 5.1756 4.04462 5.0636 4.17033C4.94931 4.29491 4.82474 4.41376 4.68874 4.52691C4.55159 4.64005 4.42588 4.77377 4.31273 4.92806C4.19916 5.08376 4.10333 5.25166 4.02701 5.42863C3.94649 5.62422 3.90719 5.83432 3.91159 6.04578C3.9173 6.28921 3.9653 6.51779 4.05444 6.73151C4.14359 6.94636 4.27159 7.13722 4.43845 7.30294L8.69678 11.5624C8.86063 11.7302 9.05659 11.8632 9.27298 11.9535C9.48937 12.0438 9.72175 12.0896 9.95623 12.0881C10.1707 12.0995 10.3848 12.0604 10.5814 11.9739C10.9247 11.8148 11.2316 11.5868 11.4831 11.3041C11.6088 11.167 11.7231 11.0413 11.8317 10.9281C11.938 10.8161 12.0488 10.7201 12.162 10.6424C12.2662 10.5682 12.3906 10.5279 12.5185 10.527C12.602 10.527 12.7151 10.575 12.858 10.6698C13.0008 10.7647 13.1585 10.887 13.3311 11.0356C13.5037 11.1841 13.682 11.3487 13.8671 11.527C14.0511 11.7053 14.2157 11.8836 14.3586 12.063C14.5003 12.2413 14.6203 12.4024 14.7151 12.5453C14.81 12.6881 14.858 12.7967 14.858 12.8756C14.8588 12.9587 14.8426 13.0412 14.8104 13.1178C14.7782 13.1945 14.7306 13.2637 14.6706 13.3213C14.4146 13.5716 14.1974 13.7899 14.0191 13.9727C13.8459 14.1528 13.6544 14.3145 13.4477 14.455C13.243 14.5931 13.0167 14.6959 12.778 14.759ZM16.0009 0.804581L10.6979 6.11664H14.4557V7.25951H8.74135V1.54516H9.88422V5.30292L15.1974 0L16.0009 0.803438V0.804581Z" fill="white"/>
</svg>
