<svg width="24" height="20" viewBox="0 0 24 20" fill="none" xmlns="http://www.w3.org/2000/svg">
<path d="M22.8002 1.60951C21.86 2.24194 20.819 2.72564 19.7173 3.04199C19.126 2.39364 18.3401 1.93411 17.466 1.72554C16.5919 1.51697 15.6717 1.56944 14.8299 1.87584C13.988 2.18223 13.2652 2.72779 12.7591 3.4387C12.253 4.14962 11.9881 4.99161 12.0002 5.85078V6.78705C10.2748 6.82971 8.56508 6.4648 7.02337 5.72481C5.48165 4.98481 4.15578 3.89272 3.16383 2.54578C3.16383 2.54578 -0.763441 10.9721 8.07292 14.7172C6.0509 16.0261 3.64213 16.6823 1.2002 16.5897C10.0366 21.271 20.8366 16.5897 20.8366 5.82269C20.8357 5.5619 20.8094 5.30175 20.758 5.0456C21.7601 4.10324 22.4672 2.91346 22.8002 1.60951V1.60951Z" stroke="white" stroke-width="2" stroke-linecap="round" stroke-linejoin="round"/>
</svg>
